<?xml version="1.0" encoding="UTF-8" standalone="no"?>
<svg
   width="720pt"
   height="288pt"
   viewBox="0 0 720 288"
   version="1.1"
   id="svg608"
   sodipodi:docname="01.finite_length_sequence_mod.svg"
   inkscape:version="1.2.1 (9c6d41e410, 2022-07-14)"
   inkscape:export-filename="01.finite_length_sequence_mod.png"
   inkscape:export-xdpi="96"
   inkscape:export-ydpi="96"
   xmlns:inkscape="http://www.inkscape.org/namespaces/inkscape"
   xmlns:sodipodi="http://sodipodi.sourceforge.net/DTD/sodipodi-0.dtd"
   xmlns:xlink="http://www.w3.org/1999/xlink"
   xmlns="http://www.w3.org/2000/svg"
   xmlns:svg="http://www.w3.org/2000/svg"
   xmlns:rdf="http://www.w3.org/1999/02/22-rdf-syntax-ns#"
   xmlns:cc="http://creativecommons.org/ns#"
   xmlns:dc="http://purl.org/dc/elements/1.1/">
  <sodipodi:namedview
     id="namedview610"
     pagecolor="#ffffff"
     bordercolor="#000000"
     borderopacity="0.25"
     inkscape:showpageshadow="2"
     inkscape:pageopacity="0.0"
     inkscape:pagecheckerboard="0"
     inkscape:deskcolor="#d1d1d1"
     inkscape:document-units="pt"
     showgrid="false"
     inkscape:zoom="0.9995249"
     inkscape:cx="540.25668"
     inkscape:cy="274.13024"
     inkscape:window-width="1600"
     inkscape:window-height="831"
     inkscape:window-x="0"
     inkscape:window-y="32"
     inkscape:window-maximized="1"
     inkscape:current-layer="svg608" />
  <metadata
     id="metadata2">
    <rdf:RDF>
      <cc:Work>
        <dc:type
           rdf:resource="http://purl.org/dc/dcmitype/StillImage" />
        <dc:date>2022-09-09T15:03:47.647370</dc:date>
        <dc:format>image/svg+xml</dc:format>
        <dc:creator>
          <cc:Agent>
            <dc:title>Matplotlib v3.5.3, https://matplotlib.org/</dc:title>
          </cc:Agent>
        </dc:creator>
      </cc:Work>
    </rdf:RDF>
  </metadata>
  <defs
     id="defs6">
    <style
       type="text/css"
       id="style4">*{stroke-linejoin: round; stroke-linecap: butt}</style>
    <defs
       id="defs541">
      <path
         id="mebeea11a20"
         d="M 0,3 C 0.795609,3 1.55874,2.683901 2.12132,2.12132 2.683901,1.55874 3,0.795609 3,0 3,-0.795609 2.683901,-1.55874 2.12132,-2.12132 1.55874,-2.683901 0.795609,-3 0,-3 -0.795609,-3 -1.55874,-2.683901 -2.12132,-2.12132 -2.683901,-1.55874 -3,-0.795609 -3,0 -3,0.795609 -2.683901,1.55874 -2.12132,2.12132 -1.55874,2.683901 -0.795609,3 0,3 Z"
         style="stroke:#1f77b4" />
    </defs>
    <defs
       id="defs352">
      <path
         id="DejaVuSans-4e"
         d="m 628,4666 h 850 L 3547,763 v 3903 h 612 V 0 H 3309 L 1241,3903 V 0 H 628 Z"
         transform="scale(0.015625)" />
      <path
         id="DejaVuSans-2d"
         d="M 313,2009 H 1997 V 1497 H 313 Z"
         transform="scale(0.015625)" />
      <path
         id="DejaVuSans-20"
         transform="scale(0.015625)"
         d="" />
      <path
         id="DejaVuSans-6e"
         d="M 3513,2113 V 0 h -575 v 2094 q 0,497 -194,743 -194,247 -581,247 -466,0 -735,-297 -269,-296 -269,-809 V 0 H 581 v 3500 h 578 v -544 q 207,316 486,472 280,156 646,156 603,0 912,-373 310,-373 310,-1098 z"
         transform="scale(0.015625)" />
    </defs>
  </defs>
  <path
     d="M 90,252 H 648 V 34.56 H 90 Z"
     style="fill:#ffffff"
     id="path11" />
  <g
     id="line2d_1">
    <path
       d="M 115.36364,252 V 34.56"
       clip-path="url(#p55d8150cab)"
       style="fill:none;stroke:#b0b0b0;stroke-width:0.8;stroke-linecap:square"
       id="path14" />
  </g>
  <g
     id="line2d_2">
    <defs
       id="defs18">
      <path
         id="mcf395474de"
         d="M 0,0 V 3.5"
         style="stroke:#000000;stroke-width:0.8" />
    </defs>
    <g
       id="g22">
      <use
         xlink:href="#mcf395474de"
         x="115.36363"
         y="252"
         style="stroke:#000000;stroke-width:0.8"
         id="use20" />
    </g>
  </g>
  <g
     id="line2d_3">
    <path
       d="M 142.0622,252 V 34.56"
       clip-path="url(#p55d8150cab)"
       style="fill:none;stroke:#b0b0b0;stroke-width:0.8;stroke-linecap:square"
       id="path37" />
  </g>
  <g
     id="line2d_4">
    <g
       id="g42">
      <use
         xlink:href="#mcf395474de"
         x="142.06219"
         y="252"
         style="stroke:#000000;stroke-width:0.8"
         id="use40" />
    </g>
  </g>
  <g
     id="line2d_5">
    <path
       d="M 168.76077,252 V 34.56"
       clip-path="url(#p55d8150cab)"
       style="fill:none;stroke:#b0b0b0;stroke-width:0.8;stroke-linecap:square"
       id="path56" />
  </g>
  <g
     id="line2d_6">
    <g
       id="g61">
      <use
         xlink:href="#mcf395474de"
         x="168.76077"
         y="252"
         style="stroke:#000000;stroke-width:0.8"
         id="use59" />
    </g>
  </g>
  <g
     id="line2d_7">
    <path
       d="M 195.45933,252 V 34.56"
       clip-path="url(#p55d8150cab)"
       style="fill:none;stroke:#b0b0b0;stroke-width:0.8;stroke-linecap:square"
       id="path75" />
  </g>
  <g
     id="line2d_8">
    <g
       id="g80">
      <use
         xlink:href="#mcf395474de"
         x="195.45934"
         y="252"
         style="stroke:#000000;stroke-width:0.8"
         id="use78" />
    </g>
  </g>
  <g
     id="line2d_9">
    <path
       d="M 222.15789,252 V 34.56"
       clip-path="url(#p55d8150cab)"
       style="fill:none;stroke:#b0b0b0;stroke-width:0.8;stroke-linecap:square"
       id="path94" />
  </g>
  <g
     id="line2d_10">
    <g
       id="g99">
      <use
         xlink:href="#mcf395474de"
         x="222.1579"
         y="252"
         style="stroke:#000000;stroke-width:0.8"
         id="use97" />
    </g>
  </g>
  <g
     id="line2d_11">
    <path
       d="M 248.85646,252 V 34.56"
       clip-path="url(#p55d8150cab)"
       style="fill:none;stroke:#b0b0b0;stroke-width:0.8;stroke-linecap:square"
       id="path113" />
  </g>
  <g
     id="line2d_12">
    <g
       id="g118">
      <use
         xlink:href="#mcf395474de"
         x="248.85646"
         y="252"
         style="stroke:#000000;stroke-width:0.8"
         id="use116" />
    </g>
  </g>
  <g
     id="line2d_13">
    <path
       d="M 275.55502,252 V 34.56"
       clip-path="url(#p55d8150cab)"
       style="fill:none;stroke:#b0b0b0;stroke-width:0.8;stroke-linecap:square"
       id="path132" />
  </g>
  <g
     id="line2d_14">
    <g
       id="g137">
      <use
         xlink:href="#mcf395474de"
         x="275.55502"
         y="252"
         style="stroke:#000000;stroke-width:0.8"
         id="use135" />
    </g>
  </g>
  <g
     id="text_7"
     transform="translate(0,-0.9403895)">
    <!-- 0 -->
    <g
       transform="matrix(0.1,0,0,-0.1,272.37377,266.59844)"
       id="g145">
      <defs
         id="defs141">
        <path
           id="DejaVuSans-30"
           d="m 2034,4250 q -487,0 -733,-480 -245,-479 -245,-1442 0,-959 245,-1439 246,-480 733,-480 491,0 736,480 246,480 246,1439 0,963 -246,1442 -245,480 -736,480 z m 0,500 q 785,0 1199,-621 414,-620 414,-1801 0,-1178 -414,-1799 -414,-620 -1199,-620 -784,0 -1198,620 -414,621 -414,1799 0,1181 414,1801 414,621 1198,621 z"
           transform="scale(0.015625)" />
      </defs>
      <use
         xlink:href="#DejaVuSans-30"
         id="use143" />
    </g>
  </g>
  <g
     id="line2d_15">
    <path
       d="M 302.25359,252 V 34.56"
       clip-path="url(#p55d8150cab)"
       style="fill:none;stroke:#b0b0b0;stroke-width:0.8;stroke-linecap:square"
       id="path149" />
  </g>
  <g
     id="line2d_16">
    <g
       id="g154">
      <use
         xlink:href="#mcf395474de"
         x="302.2536"
         y="252"
         style="stroke:#000000;stroke-width:0.8"
         id="use152" />
    </g>
  </g>
  <g
     id="line2d_17">
    <path
       d="M 328.95215,252 V 34.56"
       clip-path="url(#p55d8150cab)"
       style="fill:none;stroke:#b0b0b0;stroke-width:0.8;stroke-linecap:square"
       id="path163" />
  </g>
  <g
     id="line2d_18">
    <g
       id="g168">
      <use
         xlink:href="#mcf395474de"
         x="328.95215"
         y="252"
         style="stroke:#000000;stroke-width:0.8"
         id="use166" />
    </g>
  </g>
  <g
     id="line2d_19">
    <path
       d="M 355.65072,252 V 34.56"
       clip-path="url(#p55d8150cab)"
       style="fill:none;stroke:#b0b0b0;stroke-width:0.8;stroke-linecap:square"
       id="path177" />
  </g>
  <g
     id="line2d_20">
    <g
       id="g182">
      <use
         xlink:href="#mcf395474de"
         x="355.65073"
         y="252"
         style="stroke:#000000;stroke-width:0.8"
         id="use180" />
    </g>
  </g>
  <g
     id="line2d_21">
    <path
       d="M 382.34928,252 V 34.56"
       clip-path="url(#p55d8150cab)"
       style="fill:none;stroke:#b0b0b0;stroke-width:0.8;stroke-linecap:square"
       id="path191" />
  </g>
  <g
     id="line2d_22">
    <g
       id="g196">
      <use
         xlink:href="#mcf395474de"
         x="382.34927"
         y="252"
         style="stroke:#000000;stroke-width:0.8"
         id="use194" />
    </g>
  </g>
  <g
     id="line2d_23">
    <path
       d="M 409.04785,252 V 34.56"
       clip-path="url(#p55d8150cab)"
       style="fill:none;stroke:#b0b0b0;stroke-width:0.8;stroke-linecap:square"
       id="path205" />
  </g>
  <g
     id="line2d_24">
    <g
       id="g210">
      <use
         xlink:href="#mcf395474de"
         x="409.04785"
         y="252"
         style="stroke:#000000;stroke-width:0.8"
         id="use208" />
    </g>
  </g>
  <g
     id="line2d_25">
    <path
       d="M 435.74641,252 V 34.56"
       clip-path="url(#p55d8150cab)"
       style="fill:none;stroke:#b0b0b0;stroke-width:0.8;stroke-linecap:square"
       id="path219" />
  </g>
  <g
     id="line2d_26">
    <g
       id="g224">
      <use
         xlink:href="#mcf395474de"
         x="435.7464"
         y="252"
         style="stroke:#000000;stroke-width:0.8"
         id="use222" />
    </g>
  </g>
  <g
     id="line2d_27">
    <path
       d="M 462.44498,252 V 34.56"
       clip-path="url(#p55d8150cab)"
       style="fill:none;stroke:#b0b0b0;stroke-width:0.8;stroke-linecap:square"
       id="path233" />
  </g>
  <g
     id="line2d_28">
    <g
       id="g238">
      <use
         xlink:href="#mcf395474de"
         x="462.44498"
         y="252"
         style="stroke:#000000;stroke-width:0.8"
         id="use236" />
    </g>
  </g>
  <g
     id="line2d_29">
    <path
       d="M 489.14354,252 V 34.56"
       clip-path="url(#p55d8150cab)"
       style="fill:none;stroke:#b0b0b0;stroke-width:0.8;stroke-linecap:square"
       id="path250" />
  </g>
  <g
     id="line2d_30">
    <g
       id="g255">
      <use
         xlink:href="#mcf395474de"
         x="489.14355"
         y="252"
         style="stroke:#000000;stroke-width:0.8"
         id="use253" />
    </g>
  </g>
  <g
     id="line2d_31">
    <path
       d="M 515.8421,252 V 34.56"
       clip-path="url(#p55d8150cab)"
       style="fill:none;stroke:#b0b0b0;stroke-width:0.8;stroke-linecap:square"
       id="path267" />
  </g>
  <g
     id="line2d_32">
    <g
       id="g272">
      <use
         xlink:href="#mcf395474de"
         x="515.8421"
         y="252"
         style="stroke:#000000;stroke-width:0.8"
         id="use270" />
    </g>
  </g>
  <g
     id="line2d_33">
    <path
       d="M 542.54067,252 V 34.56"
       clip-path="url(#p55d8150cab)"
       style="fill:none;stroke:#b0b0b0;stroke-width:0.8;stroke-linecap:square"
       id="path284" />
  </g>
  <g
     id="line2d_34">
    <g
       id="g289">
      <use
         xlink:href="#mcf395474de"
         x="542.54065"
         y="252"
         style="stroke:#000000;stroke-width:0.8"
         id="use287" />
    </g>
  </g>
  <g
     id="line2d_35">
    <path
       d="M 569.23923,252 V 34.56"
       clip-path="url(#p55d8150cab)"
       style="fill:none;stroke:#b0b0b0;stroke-width:0.8;stroke-linecap:square"
       id="path300" />
  </g>
  <g
     id="line2d_36">
    <g
       id="g305">
      <use
         xlink:href="#mcf395474de"
         x="569.23926"
         y="252"
         style="stroke:#000000;stroke-width:0.8"
         id="use303" />
    </g>
  </g>
  <g
     id="line2d_37">
    <path
       d="M 595.9378,252 V 34.56"
       clip-path="url(#p55d8150cab)"
       style="fill:none;stroke:#b0b0b0;stroke-width:0.8;stroke-linecap:square"
       id="path316" />
  </g>
  <g
     id="line2d_38">
    <g
       id="g321">
      <use
         xlink:href="#mcf395474de"
         x="595.93781"
         y="252"
         style="stroke:#000000;stroke-width:0.8"
         id="use319" />
    </g>
  </g>
  <g
     id="line2d_39">
    <path
       d="M 622.63636,252 V 34.56"
       clip-path="url(#p55d8150cab)"
       style="fill:none;stroke:#b0b0b0;stroke-width:0.8;stroke-linecap:square"
       id="path332" />
  </g>
  <g
     id="line2d_40">
    <g
       id="g337">
      <use
         xlink:href="#mcf395474de"
         x="622.63635"
         y="252"
         style="stroke:#000000;stroke-width:0.8"
         id="use335" />
    </g>
  </g>
  <g
     id="g2264"
     transform="translate(151.52019,-14.613041)">
    <use
       xlink:href="#DejaVuSans-4e"
       id="use354"
       transform="matrix(0.1,0,0,-0.1,355.51641,280.27656)" />
    <use
       xlink:href="#DejaVuSans-2d"
       x="74.804688"
       id="use356"
       transform="matrix(0.1,0,0,-0.1,355.51641,280.27656)" />
    <path
       id="use358"
       d="m 367.8459,279.44687 h 1.61094 v -5.5625 l -1.75313,0.35157 v -0.89844 l 1.74376,-0.35156 h 0.98593 v 6.46093 h 1.61094 v 0.82969 h -4.19844 z"
       style="stroke-width:0.0015625" />
  </g>
  <use
     xlink:href="#DejaVuSans-20"
     x="174.51172"
     id="use360"
     transform="matrix(0.1,0,0,-0.1,355.51641,280.27656)" />
  <use
     xlink:href="#DejaVuSans-6e"
     x="206.29883"
     id="use362"
     transform="matrix(0.1,0,0,-0.1,355.51641,280.27656)" />
  <g
     id="ytick_1">
    <g
       id="line2d_41">
      <path
         d="M 90,242.11636 H 648"
         clip-path="url(#p55d8150cab)"
         style="fill:none;stroke:#b0b0b0;stroke-width:0.8;stroke-linecap:square"
         id="path368" />
    </g>
    <g
       id="line2d_42">
      <defs
         id="defs372">
        <path
           id="m7f50d4bec0"
           d="M 0,0 H -3.5"
           style="stroke:#000000;stroke-width:0.8" />
      </defs>
      <g
         id="g376">
        <use
           xlink:href="#m7f50d4bec0"
           x="90"
           y="242.11636"
           style="stroke:#000000;stroke-width:0.8"
           id="use374" />
      </g>
    </g>
    <g
       id="text_22">
      <!-- 0.0 -->
      <g
         transform="matrix(0.1,0,0,-0.1,67.096875,245.91558)"
         id="g388">
        <defs
           id="defs380">
          <path
             id="DejaVuSans-2e"
             d="m 684,794 h 660 V 0 H 684 Z"
             transform="scale(0.015625)" />
        </defs>
        <use
           xlink:href="#DejaVuSans-30"
           id="use382" />
        <use
           xlink:href="#DejaVuSans-2e"
           x="63.623047"
           id="use384" />
        <use
           xlink:href="#DejaVuSans-30"
           x="95.410156"
           id="use386" />
      </g>
    </g>
  </g>
  <g
     id="ytick_2">
    <g
       id="line2d_43">
      <path
         d="M 90,202.58182 H 648"
         clip-path="url(#p55d8150cab)"
         style="fill:none;stroke:#b0b0b0;stroke-width:0.8;stroke-linecap:square"
         id="path392" />
    </g>
    <g
       id="line2d_44">
      <g
         id="g397">
        <use
           xlink:href="#m7f50d4bec0"
           x="90"
           y="202.58182"
           style="stroke:#000000;stroke-width:0.8"
           id="use395" />
      </g>
    </g>
    <g
       id="text_23">
      <!-- 0.2 -->
      <g
         transform="matrix(0.1,0,0,-0.1,67.096875,206.38104)"
         id="g406">
        <use
           xlink:href="#DejaVuSans-30"
           id="use400" />
        <use
           xlink:href="#DejaVuSans-2e"
           x="63.623047"
           id="use402" />
        <path
           id="use404"
           d="m 114.59766,8.296875 h 34.42187 V 0 h -46.28125 v 8.296875 q 5.60938,5.8125 15.29688,15.59375 9.70312,9.796875 12.1875,12.640625 4.73437,5.3125 6.60937,9 1.89063,3.6875 1.89063,7.25 0,5.8125 -4.07813,9.46875 -4.07812,3.671875 -10.625,3.671875 -4.64062,0 -9.79687,-1.609375 -5.14063,-1.609375 -11,-4.890625 v 9.96875 q 5.95312,2.390625 11.125,3.609375 5.1875,1.21875 9.48437,1.21875 11.32813,0 18.0625,-5.671875 6.73438,-5.65625 6.73438,-15.125 0,-4.5 -1.6875,-8.53125 -1.67188,-4.015625 -6.125,-9.484375 -1.21875,-1.421875 -7.76563,-8.1875 -6.53125,-6.765625 -18.45312,-18.921875 z"
           style="stroke-width:0.015625" />
      </g>
    </g>
  </g>
  <g
     id="ytick_3">
    <g
       id="line2d_45">
      <path
         d="M 90,163.04727 H 648"
         clip-path="url(#p55d8150cab)"
         style="fill:none;stroke:#b0b0b0;stroke-width:0.8;stroke-linecap:square"
         id="path410" />
    </g>
    <g
       id="line2d_46">
      <g
         id="g415">
        <use
           xlink:href="#m7f50d4bec0"
           x="90"
           y="163.04727"
           style="stroke:#000000;stroke-width:0.8"
           id="use413" />
      </g>
    </g>
    <g
       id="text_24">
      <!-- 0.4 -->
      <g
         transform="matrix(0.1,0,0,-0.1,67.096875,166.84649)"
         id="g424">
        <use
           xlink:href="#DejaVuSans-30"
           id="use418" />
        <use
           xlink:href="#DejaVuSans-2e"
           x="63.623047"
           id="use420" />
        <path
           id="use422"
           d="M 133.20703,64.3125 108.30078,25.390625 h 24.90625 z m -2.59375,8.59375 h 12.40625 V 25.390625 h 10.40625 V 17.1875 H 143.01953 V 0 h -9.8125 v 17.1875 h -32.90625 v 9.515625 z"
           style="stroke-width:0.015625" />
      </g>
    </g>
  </g>
  <g
     id="ytick_4">
    <g
       id="line2d_47">
      <path
         d="M 90,123.51273 H 648"
         clip-path="url(#p55d8150cab)"
         style="fill:none;stroke:#b0b0b0;stroke-width:0.8;stroke-linecap:square"
         id="path428" />
    </g>
    <g
       id="line2d_48">
      <g
         id="g433">
        <use
           xlink:href="#m7f50d4bec0"
           x="90"
           y="123.51273"
           style="stroke:#000000;stroke-width:0.8"
           id="use431" />
      </g>
    </g>
    <g
       id="text_25">
      <!-- 0.6 -->
      <g
         transform="matrix(0.1,0,0,-0.1,67.096875,127.31195)"
         id="g442">
        <use
           xlink:href="#DejaVuSans-30"
           id="use436" />
        <use
           xlink:href="#DejaVuSans-2e"
           x="63.623047"
           id="use438" />
        <path
           id="use440"
           d="m 128.42578,40.375 q -6.64062,0 -10.53125,-4.546875 -3.875,-4.53125 -3.875,-12.4375 0,-7.859375 3.875,-12.4375 3.89063,-4.5625 10.53125,-4.5625 6.64063,0 10.51563,4.5625 3.875,4.578125 3.875,12.4375 0,7.90625 -3.875,12.4375 -3.875,4.546875 -10.51563,4.546875 z m 19.57813,30.921875 V 62.3125 q -3.71875,1.75 -7.5,2.671875 -3.78125,0.9375 -7.5,0.9375 -9.76563,0 -14.92188,-6.59375 -5.14062,-6.59375 -5.875,-19.921875 2.875,4.25 7.21875,6.515625 4.35938,2.265625 9.57813,2.265625 10.98437,0 17.35937,-6.671875 6.375,-6.65625 6.375,-18.125 0,-11.234375 -6.64062,-18.03125 -6.64063,-6.78125 -17.67188,-6.78125 -12.65625,0 -19.34375,9.6875 -6.6875,9.703125 -6.6875,28.109375 0,17.28125 8.20313,27.5625 8.20312,10.28125 22.01562,10.28125 3.71875,0 7.5,-0.734375 3.78125,-0.734375 7.89063,-2.1875 z"
           style="stroke-width:0.015625" />
      </g>
    </g>
  </g>
  <g
     id="ytick_5">
    <g
       id="line2d_49">
      <path
         d="M 90,83.978182 H 648"
         clip-path="url(#p55d8150cab)"
         style="fill:none;stroke:#b0b0b0;stroke-width:0.8;stroke-linecap:square"
         id="path446" />
    </g>
    <g
       id="line2d_50">
      <g
         id="g451">
        <use
           xlink:href="#m7f50d4bec0"
           x="90"
           y="83.97818"
           style="stroke:#000000;stroke-width:0.8"
           id="use449" />
      </g>
    </g>
    <g
       id="text_26">
      <!-- 0.8 -->
      <g
         transform="matrix(0.1,0,0,-0.1,67.096875,87.777401)"
         id="g460">
        <use
           xlink:href="#DejaVuSans-30"
           id="use454" />
        <use
           xlink:href="#DejaVuSans-2e"
           x="63.623047"
           id="use456" />
        <path
           id="use458"
           d="m 127.19141,34.625 q -7.03125,0 -11.0625,-3.765625 -4.01563,-3.765625 -4.01563,-10.34375 0,-6.59375 4.01563,-10.359375 4.03125,-3.765625 11.0625,-3.765625 7.03125,0 11.07812,3.78125 4.0625,3.796875 4.0625,10.34375 0,6.578125 -4.03125,10.34375 Q 134.28516,34.625 127.19141,34.625 Z m -9.85938,4.1875 q -6.34375,1.5625 -9.89062,5.90625 -3.53125,4.359375 -3.53125,10.609375 0,8.734375 6.21875,13.8125 6.23437,5.078125 17.0625,5.078125 10.89062,0 17.09375,-5.078125 6.20312,-5.078125 6.20312,-13.8125 0,-6.25 -3.54687,-10.609375 -3.53125,-4.34375 -9.82813,-5.90625 7.125,-1.65625 11.09375,-6.5 3.98438,-4.828125 3.98438,-11.796875 0,-10.609375 -6.46875,-16.28125 -6.46875,-5.65625 -18.53125,-5.65625 -12.04688,0 -18.53125,5.65625 -6.46875,5.671875 -6.46875,16.28125 0,6.96875 4,11.796875 4.01562,4.84375 11.14062,6.5 z m -3.60937,15.578125 q 0,-5.65625 3.53125,-8.828125 3.54687,-3.171875 9.9375,-3.171875 6.35937,0 9.9375,3.171875 3.59375,3.171875 3.59375,8.828125 0,5.671875 -3.59375,8.84375 -3.57813,3.171875 -9.9375,3.171875 -6.39063,0 -9.9375,-3.171875 -3.53125,-3.171875 -3.53125,-8.84375 z"
           style="stroke-width:0.015625" />
      </g>
    </g>
  </g>
  <g
     id="ytick_6">
    <g
       id="line2d_51">
      <path
         d="M 90,44.443636 H 648"
         clip-path="url(#p55d8150cab)"
         style="fill:none;stroke:#b0b0b0;stroke-width:0.8;stroke-linecap:square"
         id="path464" />
    </g>
    <g
       id="line2d_52">
      <g
         id="g469">
        <use
           xlink:href="#m7f50d4bec0"
           x="90"
           y="44.443638"
           style="stroke:#000000;stroke-width:0.8"
           id="use467" />
      </g>
    </g>
    <g
       id="text_27">
      <!-- 1.0 -->
      <g
         transform="matrix(0.1,0,0,-0.1,67.096875,48.242855)"
         id="g478">
        <path
           id="use472"
           d="m 12.40625,8.296875 h 16.109375 v 55.625 L 10.984375,60.40625 v 8.984375 l 17.4375,3.515625 H 38.28125 V 8.296875 H 54.390625 V 0 H 12.40625 Z"
           style="stroke-width:0.015625" />
        <use
           xlink:href="#DejaVuSans-2e"
           x="63.623047"
           id="use474" />
        <use
           xlink:href="#DejaVuSans-30"
           x="95.410156"
           id="use476" />
      </g>
    </g>
  </g>
  <g
     id="text_28">
    <!-- x(n) -->
    <g
       transform="matrix(0,-0.1,-0.1,0,61.017187,153.30969)"
       id="g495">
      <defs
         id="defs485">
        <path
           id="DejaVuSans-78"
           d="M 3513,3500 2247,1797 3578,0 H 2900 L 1881,1375 863,0 H 184 L 1544,1831 300,3500 h 678 l 928,-1247 928,1247 z"
           transform="scale(0.015625)" />
        <path
           id="DejaVuSans-28"
           d="m 1984,4856 q -418,-718 -622,-1422 -203,-703 -203,-1425 0,-721 205,-1429 205,-708 620,-1424 h -500 q -468,735 -701,1444 -233,709 -233,1409 0,697 231,1403 232,707 703,1444 z"
           transform="scale(0.015625)" />
        <path
           id="DejaVuSans-29"
           d="m 513,4856 h 500 q 468,-737 701,-1444 233,-706 233,-1403 0,-700 -233,-1409 -233,-709 -701,-1444 H 513 q 415,716 620,1424 205,708 205,1429 0,722 -205,1425 -205,704 -620,1422 z"
           transform="scale(0.015625)" />
      </defs>
      <use
         xlink:href="#DejaVuSans-78"
         id="use487" />
      <use
         xlink:href="#DejaVuSans-28"
         x="59.179688"
         id="use489" />
      <use
         xlink:href="#DejaVuSans-6e"
         x="98.193359"
         id="use491" />
      <use
         xlink:href="#DejaVuSans-29"
         x="161.57227"
         id="use493" />
    </g>
  </g>
  <path
     d="m 115.36364,242.11636 v 0"
     clip-path="url(#p55d8150cab)"
     style="fill:none;stroke:#1f77b4;stroke-width:1.5"
     id="path499" />
  <path
     d="m 142.0622,242.11636 v 0"
     clip-path="url(#p55d8150cab)"
     style="fill:none;stroke:#1f77b4;stroke-width:1.5"
     id="path501" />
  <path
     d="m 168.76077,242.11636 v 0"
     clip-path="url(#p55d8150cab)"
     style="fill:none;stroke:#1f77b4;stroke-width:1.5"
     id="path503" />
  <path
     d="m 195.45933,242.11636 v 0"
     clip-path="url(#p55d8150cab)"
     style="fill:none;stroke:#1f77b4;stroke-width:1.5"
     id="path505" />
  <path
     d="m 222.15789,242.11636 v 0"
     clip-path="url(#p55d8150cab)"
     style="fill:none;stroke:#1f77b4;stroke-width:1.5"
     id="path507" />
  <path
     d="m 248.85646,242.11636 v 0"
     clip-path="url(#p55d8150cab)"
     style="fill:none;stroke:#1f77b4;stroke-width:1.5"
     id="path509" />
  <path
     d="m 275.55502,242.11636 v 0"
     clip-path="url(#p55d8150cab)"
     style="fill:none;stroke:#1f77b4;stroke-width:1.5"
     id="path511" />
  <path
     d="M 302.25359,242.11636 V 202.58182"
     clip-path="url(#p55d8150cab)"
     style="fill:none;stroke:#1f77b4;stroke-width:1.5"
     id="path513" />
  <path
     d="M 328.95215,242.11636 V 163.04727"
     clip-path="url(#p55d8150cab)"
     style="fill:none;stroke:#1f77b4;stroke-width:1.5"
     id="path515" />
  <path
     d="M 355.65072,242.11636 V 123.51273"
     clip-path="url(#p55d8150cab)"
     style="fill:none;stroke:#1f77b4;stroke-width:1.5"
     id="path517" />
  <path
     d="M 382.34928,242.11636 V 83.978182"
     clip-path="url(#p55d8150cab)"
     style="fill:none;stroke:#1f77b4;stroke-width:1.5"
     id="path519" />
  <path
     d="M 409.04785,242.11636 V 44.443636"
     clip-path="url(#p55d8150cab)"
     style="fill:none;stroke:#1f77b4;stroke-width:1.5"
     id="path521" />
  <path
     d="M 435.74641,242.11636 V 83.978182"
     clip-path="url(#p55d8150cab)"
     style="fill:none;stroke:#1f77b4;stroke-width:1.5"
     id="path523" />
  <path
     d="M 462.44498,242.11636 V 123.51273"
     clip-path="url(#p55d8150cab)"
     style="fill:none;stroke:#1f77b4;stroke-width:1.5"
     id="path525" />
  <path
     d="M 489.14354,242.11636 V 163.04727"
     clip-path="url(#p55d8150cab)"
     style="fill:none;stroke:#1f77b4;stroke-width:1.5"
     id="path527" />
  <path
     d="M 515.8421,242.11636 V 202.58182"
     clip-path="url(#p55d8150cab)"
     style="fill:none;stroke:#1f77b4;stroke-width:1.5"
     id="path529" />
  <path
     d="m 542.54067,242.11636 v 0"
     clip-path="url(#p55d8150cab)"
     style="fill:none;stroke:#1f77b4;stroke-width:1.5"
     id="path531" />
  <path
     d="m 569.23923,242.11636 v 0"
     clip-path="url(#p55d8150cab)"
     style="fill:none;stroke:#1f77b4;stroke-width:1.5"
     id="path533" />
  <path
     d="m 595.9378,242.11636 v 0"
     clip-path="url(#p55d8150cab)"
     style="fill:none;stroke:#1f77b4;stroke-width:1.5"
     id="path535" />
  <path
     d="m 622.63636,242.11636 v 0"
     clip-path="url(#p55d8150cab)"
     style="fill:none;stroke:#1f77b4;stroke-width:1.5"
     id="path537" />
  <g
     clip-path="url(#p55d8150cab)"
     id="g583">
    <use
       xlink:href="#mebeea11a20"
       x="115.36363"
       y="242.11636"
       style="fill:#1f77b4;stroke:#1f77b4"
       id="use543" />
    <use
       xlink:href="#mebeea11a20"
       x="142.06219"
       y="242.11636"
       style="fill:#1f77b4;stroke:#1f77b4"
       id="use545" />
    <use
       xlink:href="#mebeea11a20"
       x="168.76077"
       y="242.11636"
       style="fill:#1f77b4;stroke:#1f77b4"
       id="use547" />
    <use
       xlink:href="#mebeea11a20"
       x="195.45934"
       y="242.11636"
       style="fill:#1f77b4;stroke:#1f77b4"
       id="use549" />
    <use
       xlink:href="#mebeea11a20"
       x="222.1579"
       y="242.11636"
       style="fill:#1f77b4;stroke:#1f77b4"
       id="use551" />
    <use
       xlink:href="#mebeea11a20"
       x="248.85646"
       y="242.11636"
       style="fill:#1f77b4;stroke:#1f77b4"
       id="use553" />
    <use
       xlink:href="#mebeea11a20"
       x="275.55502"
       y="242.11636"
       style="fill:#1f77b4;stroke:#1f77b4"
       id="use555" />
    <use
       xlink:href="#mebeea11a20"
       x="302.2536"
       y="202.58182"
       style="fill:#1f77b4;stroke:#1f77b4"
       id="use557" />
    <use
       xlink:href="#mebeea11a20"
       x="328.95215"
       y="163.04727"
       style="fill:#1f77b4;stroke:#1f77b4"
       id="use559" />
    <use
       xlink:href="#mebeea11a20"
       x="355.65073"
       y="123.51273"
       style="fill:#1f77b4;stroke:#1f77b4"
       id="use561" />
    <use
       xlink:href="#mebeea11a20"
       x="382.34927"
       y="83.97818"
       style="fill:#1f77b4;stroke:#1f77b4"
       id="use563" />
    <use
       xlink:href="#mebeea11a20"
       x="409.04785"
       y="44.443638"
       style="fill:#1f77b4;stroke:#1f77b4"
       id="use565" />
    <use
       xlink:href="#mebeea11a20"
       x="435.7464"
       y="83.97818"
       style="fill:#1f77b4;stroke:#1f77b4"
       id="use567" />
    <use
       xlink:href="#mebeea11a20"
       x="462.44498"
       y="123.51273"
       style="fill:#1f77b4;stroke:#1f77b4"
       id="use569" />
    <use
       xlink:href="#mebeea11a20"
       x="489.14355"
       y="163.04727"
       style="fill:#1f77b4;stroke:#1f77b4"
       id="use571" />
    <use
       xlink:href="#mebeea11a20"
       x="515.8421"
       y="202.58182"
       style="fill:#1f77b4;stroke:#1f77b4"
       id="use573" />
    <use
       xlink:href="#mebeea11a20"
       x="542.54065"
       y="242.11636"
       style="fill:#1f77b4;stroke:#1f77b4"
       id="use575" />
    <use
       xlink:href="#mebeea11a20"
       x="569.23926"
       y="242.11636"
       style="fill:#1f77b4;stroke:#1f77b4"
       id="use577" />
    <use
       xlink:href="#mebeea11a20"
       x="595.93781"
       y="242.11636"
       style="fill:#1f77b4;stroke:#1f77b4"
       id="use579" />
    <use
       xlink:href="#mebeea11a20"
       x="622.63635"
       y="242.11636"
       style="fill:#1f77b4;stroke:#1f77b4"
       id="use581" />
  </g>
  <path
     d="M 115.36364,242.11636 H 622.63636"
     clip-path="url(#p55d8150cab)"
     style="fill:none;stroke:#d62728;stroke-width:1.5;stroke-linecap:square"
     id="path586" />
  <path
     d="M 90,252 V 34.56"
     style="fill:none;stroke:#000000;stroke-width:0.8;stroke-linecap:square;stroke-linejoin:miter"
     id="path589" />
  <path
     d="M 648,252 V 34.56"
     style="fill:none;stroke:#000000;stroke-width:0.8;stroke-linecap:square;stroke-linejoin:miter"
     id="path592" />
  <path
     d="M 90,252 H 648"
     style="fill:none;stroke:#000000;stroke-width:0.8;stroke-linecap:square;stroke-linejoin:miter"
     id="path595" />
  <path
     d="M 90,34.56 H 648"
     style="fill:none;stroke:#000000;stroke-width:0.8;stroke-linecap:square;stroke-linejoin:miter"
     id="path598" />
  <defs
     id="defs606">
    <clipPath
       id="p55d8150cab">
      <rect
         x="90"
         y="34.56"
         width="558"
         height="217.44"
         id="rect603" />
    </clipPath>
  </defs>
</svg>
