<?xml version="1.0" encoding="utf-8" standalone="no"?>
<!DOCTYPE svg PUBLIC "-//W3C//DTD SVG 1.1//EN"
  "http://www.w3.org/Graphics/SVG/1.1/DTD/svg11.dtd">
<svg xmlns:xlink="http://www.w3.org/1999/xlink" width="608.98125pt" height="262.19625pt" viewBox="0 0 608.98125 262.19625" xmlns="http://www.w3.org/2000/svg" version="1.1">
 <metadata>
  <rdf:RDF xmlns:dc="http://purl.org/dc/elements/1.1/" xmlns:cc="http://creativecommons.org/ns#" xmlns:rdf="http://www.w3.org/1999/02/22-rdf-syntax-ns#">
   <cc:Work>
    <dc:type rdf:resource="http://purl.org/dc/dcmitype/StillImage"/>
    <dc:date>2022-09-09T15:10:05.548453</dc:date>
    <dc:format>image/svg+xml</dc:format>
    <dc:creator>
     <cc:Agent>
      <dc:title>Matplotlib v3.5.3, https://matplotlib.org/</dc:title>
     </cc:Agent>
    </dc:creator>
   </cc:Work>
  </rdf:RDF>
 </metadata>
 <defs>
  <style type="text/css">*{stroke-linejoin: round; stroke-linecap: butt}</style>
 </defs>
 <g id="figure_1">
  <g id="patch_1">
   <path d="M 0 262.19625 
L 608.98125 262.19625 
L 608.98125 0 
L 0 0 
z
" style="fill: #ffffff"/>
  </g>
  <g id="axes_1">
   <g id="patch_2">
    <path d="M 43.78125 224.64 
L 601.78125 224.64 
L 601.78125 7.2 
L 43.78125 7.2 
z
" style="fill: #ffffff"/>
   </g>
   <g id="matplotlib.axis_1">
    <g id="xtick_1">
     <g id="line2d_1">
      <defs>
       <path id="m59649e9a7f" d="M 0 0 
L 0 3.5 
" style="stroke: #000000; stroke-width: 0.8"/>
      </defs>
      <g>
       <use xlink:href="#m59649e9a7f" x="69.144886" y="224.64" style="stroke: #000000; stroke-width: 0.8"/>
      </g>
     </g>
     <g id="text_1">
      <!-- −10 -->
      <g transform="translate(58.592543 239.238437)scale(0.1 -0.1)">
       <defs>
        <path id="DejaVuSans-2212" d="M 678 2272 
L 4684 2272 
L 4684 1741 
L 678 1741 
L 678 2272 
z
" transform="scale(0.015625)"/>
        <path id="DejaVuSans-31" d="M 794 531 
L 1825 531 
L 1825 4091 
L 703 3866 
L 703 4441 
L 1819 4666 
L 2450 4666 
L 2450 531 
L 3481 531 
L 3481 0 
L 794 0 
L 794 531 
z
" transform="scale(0.015625)"/>
        <path id="DejaVuSans-30" d="M 2034 4250 
Q 1547 4250 1301 3770 
Q 1056 3291 1056 2328 
Q 1056 1369 1301 889 
Q 1547 409 2034 409 
Q 2525 409 2770 889 
Q 3016 1369 3016 2328 
Q 3016 3291 2770 3770 
Q 2525 4250 2034 4250 
z
M 2034 4750 
Q 2819 4750 3233 4129 
Q 3647 3509 3647 2328 
Q 3647 1150 3233 529 
Q 2819 -91 2034 -91 
Q 1250 -91 836 529 
Q 422 1150 422 2328 
Q 422 3509 836 4129 
Q 1250 4750 2034 4750 
z
" transform="scale(0.015625)"/>
       </defs>
       <use xlink:href="#DejaVuSans-2212"/>
       <use xlink:href="#DejaVuSans-31" x="83.789062"/>
       <use xlink:href="#DejaVuSans-30" x="147.412109"/>
      </g>
     </g>
    </g>
    <g id="xtick_2">
     <g id="line2d_2">
      <g>
       <use xlink:href="#m59649e9a7f" x="86.637049" y="224.64" style="stroke: #000000; stroke-width: 0.8"/>
      </g>
     </g>
     <g id="text_2">
      <!-- −9 -->
      <g transform="translate(79.265956 239.238437)scale(0.1 -0.1)">
       <defs>
        <path id="DejaVuSans-39" d="M 703 97 
L 703 672 
Q 941 559 1184 500 
Q 1428 441 1663 441 
Q 2288 441 2617 861 
Q 2947 1281 2994 2138 
Q 2813 1869 2534 1725 
Q 2256 1581 1919 1581 
Q 1219 1581 811 2004 
Q 403 2428 403 3163 
Q 403 3881 828 4315 
Q 1253 4750 1959 4750 
Q 2769 4750 3195 4129 
Q 3622 3509 3622 2328 
Q 3622 1225 3098 567 
Q 2575 -91 1691 -91 
Q 1453 -91 1209 -44 
Q 966 3 703 97 
z
M 1959 2075 
Q 2384 2075 2632 2365 
Q 2881 2656 2881 3163 
Q 2881 3666 2632 3958 
Q 2384 4250 1959 4250 
Q 1534 4250 1286 3958 
Q 1038 3666 1038 3163 
Q 1038 2656 1286 2365 
Q 1534 2075 1959 2075 
z
" transform="scale(0.015625)"/>
       </defs>
       <use xlink:href="#DejaVuSans-2212"/>
       <use xlink:href="#DejaVuSans-39" x="83.789062"/>
      </g>
     </g>
    </g>
    <g id="xtick_3">
     <g id="line2d_3">
      <g>
       <use xlink:href="#m59649e9a7f" x="104.129212" y="224.64" style="stroke: #000000; stroke-width: 0.8"/>
      </g>
     </g>
     <g id="text_3">
      <!-- −8 -->
      <g transform="translate(96.758119 239.238437)scale(0.1 -0.1)">
       <defs>
        <path id="DejaVuSans-38" d="M 2034 2216 
Q 1584 2216 1326 1975 
Q 1069 1734 1069 1313 
Q 1069 891 1326 650 
Q 1584 409 2034 409 
Q 2484 409 2743 651 
Q 3003 894 3003 1313 
Q 3003 1734 2745 1975 
Q 2488 2216 2034 2216 
z
M 1403 2484 
Q 997 2584 770 2862 
Q 544 3141 544 3541 
Q 544 4100 942 4425 
Q 1341 4750 2034 4750 
Q 2731 4750 3128 4425 
Q 3525 4100 3525 3541 
Q 3525 3141 3298 2862 
Q 3072 2584 2669 2484 
Q 3125 2378 3379 2068 
Q 3634 1759 3634 1313 
Q 3634 634 3220 271 
Q 2806 -91 2034 -91 
Q 1263 -91 848 271 
Q 434 634 434 1313 
Q 434 1759 690 2068 
Q 947 2378 1403 2484 
z
M 1172 3481 
Q 1172 3119 1398 2916 
Q 1625 2713 2034 2713 
Q 2441 2713 2670 2916 
Q 2900 3119 2900 3481 
Q 2900 3844 2670 4047 
Q 2441 4250 2034 4250 
Q 1625 4250 1398 4047 
Q 1172 3844 1172 3481 
z
" transform="scale(0.015625)"/>
       </defs>
       <use xlink:href="#DejaVuSans-2212"/>
       <use xlink:href="#DejaVuSans-38" x="83.789062"/>
      </g>
     </g>
    </g>
    <g id="xtick_4">
     <g id="line2d_4">
      <g>
       <use xlink:href="#m59649e9a7f" x="121.621375" y="224.64" style="stroke: #000000; stroke-width: 0.8"/>
      </g>
     </g>
     <g id="text_4">
      <!-- −7 -->
      <g transform="translate(114.250282 239.238437)scale(0.1 -0.1)">
       <defs>
        <path id="DejaVuSans-37" d="M 525 4666 
L 3525 4666 
L 3525 4397 
L 1831 0 
L 1172 0 
L 2766 4134 
L 525 4134 
L 525 4666 
z
" transform="scale(0.015625)"/>
       </defs>
       <use xlink:href="#DejaVuSans-2212"/>
       <use xlink:href="#DejaVuSans-37" x="83.789062"/>
      </g>
     </g>
    </g>
    <g id="xtick_5">
     <g id="line2d_5">
      <g>
       <use xlink:href="#m59649e9a7f" x="139.113538" y="224.64" style="stroke: #000000; stroke-width: 0.8"/>
      </g>
     </g>
     <g id="text_5">
      <!-- −6 -->
      <g transform="translate(131.742445 239.238437)scale(0.1 -0.1)">
       <defs>
        <path id="DejaVuSans-36" d="M 2113 2584 
Q 1688 2584 1439 2293 
Q 1191 2003 1191 1497 
Q 1191 994 1439 701 
Q 1688 409 2113 409 
Q 2538 409 2786 701 
Q 3034 994 3034 1497 
Q 3034 2003 2786 2293 
Q 2538 2584 2113 2584 
z
M 3366 4563 
L 3366 3988 
Q 3128 4100 2886 4159 
Q 2644 4219 2406 4219 
Q 1781 4219 1451 3797 
Q 1122 3375 1075 2522 
Q 1259 2794 1537 2939 
Q 1816 3084 2150 3084 
Q 2853 3084 3261 2657 
Q 3669 2231 3669 1497 
Q 3669 778 3244 343 
Q 2819 -91 2113 -91 
Q 1303 -91 875 529 
Q 447 1150 447 2328 
Q 447 3434 972 4092 
Q 1497 4750 2381 4750 
Q 2619 4750 2861 4703 
Q 3103 4656 3366 4563 
z
" transform="scale(0.015625)"/>
       </defs>
       <use xlink:href="#DejaVuSans-2212"/>
       <use xlink:href="#DejaVuSans-36" x="83.789062"/>
      </g>
     </g>
    </g>
    <g id="xtick_6">
     <g id="line2d_6">
      <g>
       <use xlink:href="#m59649e9a7f" x="156.605701" y="224.64" style="stroke: #000000; stroke-width: 0.8"/>
      </g>
     </g>
     <g id="text_6">
      <!-- −5 -->
      <g transform="translate(149.234608 239.238437)scale(0.1 -0.1)">
       <defs>
        <path id="DejaVuSans-35" d="M 691 4666 
L 3169 4666 
L 3169 4134 
L 1269 4134 
L 1269 2991 
Q 1406 3038 1543 3061 
Q 1681 3084 1819 3084 
Q 2600 3084 3056 2656 
Q 3513 2228 3513 1497 
Q 3513 744 3044 326 
Q 2575 -91 1722 -91 
Q 1428 -91 1123 -41 
Q 819 9 494 109 
L 494 744 
Q 775 591 1075 516 
Q 1375 441 1709 441 
Q 2250 441 2565 725 
Q 2881 1009 2881 1497 
Q 2881 1984 2565 2268 
Q 2250 2553 1709 2553 
Q 1456 2553 1204 2497 
Q 953 2441 691 2322 
L 691 4666 
z
" transform="scale(0.015625)"/>
       </defs>
       <use xlink:href="#DejaVuSans-2212"/>
       <use xlink:href="#DejaVuSans-35" x="83.789062"/>
      </g>
     </g>
    </g>
    <g id="xtick_7">
     <g id="line2d_7">
      <g>
       <use xlink:href="#m59649e9a7f" x="174.097864" y="224.64" style="stroke: #000000; stroke-width: 0.8"/>
      </g>
     </g>
     <g id="text_7">
      <!-- −4 -->
      <g transform="translate(166.726771 239.238437)scale(0.1 -0.1)">
       <defs>
        <path id="DejaVuSans-34" d="M 2419 4116 
L 825 1625 
L 2419 1625 
L 2419 4116 
z
M 2253 4666 
L 3047 4666 
L 3047 1625 
L 3713 1625 
L 3713 1100 
L 3047 1100 
L 3047 0 
L 2419 0 
L 2419 1100 
L 313 1100 
L 313 1709 
L 2253 4666 
z
" transform="scale(0.015625)"/>
       </defs>
       <use xlink:href="#DejaVuSans-2212"/>
       <use xlink:href="#DejaVuSans-34" x="83.789062"/>
      </g>
     </g>
    </g>
    <g id="xtick_8">
     <g id="line2d_8">
      <g>
       <use xlink:href="#m59649e9a7f" x="191.590027" y="224.64" style="stroke: #000000; stroke-width: 0.8"/>
      </g>
     </g>
     <g id="text_8">
      <!-- −3 -->
      <g transform="translate(184.218934 239.238437)scale(0.1 -0.1)">
       <defs>
        <path id="DejaVuSans-33" d="M 2597 2516 
Q 3050 2419 3304 2112 
Q 3559 1806 3559 1356 
Q 3559 666 3084 287 
Q 2609 -91 1734 -91 
Q 1441 -91 1130 -33 
Q 819 25 488 141 
L 488 750 
Q 750 597 1062 519 
Q 1375 441 1716 441 
Q 2309 441 2620 675 
Q 2931 909 2931 1356 
Q 2931 1769 2642 2001 
Q 2353 2234 1838 2234 
L 1294 2234 
L 1294 2753 
L 1863 2753 
Q 2328 2753 2575 2939 
Q 2822 3125 2822 3475 
Q 2822 3834 2567 4026 
Q 2313 4219 1838 4219 
Q 1578 4219 1281 4162 
Q 984 4106 628 3988 
L 628 4550 
Q 988 4650 1302 4700 
Q 1616 4750 1894 4750 
Q 2613 4750 3031 4423 
Q 3450 4097 3450 3541 
Q 3450 3153 3228 2886 
Q 3006 2619 2597 2516 
z
" transform="scale(0.015625)"/>
       </defs>
       <use xlink:href="#DejaVuSans-2212"/>
       <use xlink:href="#DejaVuSans-33" x="83.789062"/>
      </g>
     </g>
    </g>
    <g id="xtick_9">
     <g id="line2d_9">
      <g>
       <use xlink:href="#m59649e9a7f" x="209.08219" y="224.64" style="stroke: #000000; stroke-width: 0.8"/>
      </g>
     </g>
     <g id="text_9">
      <!-- −2 -->
      <g transform="translate(201.711097 239.238437)scale(0.1 -0.1)">
       <defs>
        <path id="DejaVuSans-32" d="M 1228 531 
L 3431 531 
L 3431 0 
L 469 0 
L 469 531 
Q 828 903 1448 1529 
Q 2069 2156 2228 2338 
Q 2531 2678 2651 2914 
Q 2772 3150 2772 3378 
Q 2772 3750 2511 3984 
Q 2250 4219 1831 4219 
Q 1534 4219 1204 4116 
Q 875 4013 500 3803 
L 500 4441 
Q 881 4594 1212 4672 
Q 1544 4750 1819 4750 
Q 2544 4750 2975 4387 
Q 3406 4025 3406 3419 
Q 3406 3131 3298 2873 
Q 3191 2616 2906 2266 
Q 2828 2175 2409 1742 
Q 1991 1309 1228 531 
z
" transform="scale(0.015625)"/>
       </defs>
       <use xlink:href="#DejaVuSans-2212"/>
       <use xlink:href="#DejaVuSans-32" x="83.789062"/>
      </g>
     </g>
    </g>
    <g id="xtick_10">
     <g id="line2d_10">
      <g>
       <use xlink:href="#m59649e9a7f" x="226.574353" y="224.64" style="stroke: #000000; stroke-width: 0.8"/>
      </g>
     </g>
     <g id="text_10">
      <!-- −1 -->
      <g transform="translate(219.20326 239.238437)scale(0.1 -0.1)">
       <use xlink:href="#DejaVuSans-2212"/>
       <use xlink:href="#DejaVuSans-31" x="83.789062"/>
      </g>
     </g>
    </g>
    <g id="xtick_11">
     <g id="line2d_11">
      <g>
       <use xlink:href="#m59649e9a7f" x="244.066516" y="224.64" style="stroke: #000000; stroke-width: 0.8"/>
      </g>
     </g>
     <g id="text_11">
      <!-- 0 -->
      <g transform="translate(240.885266 239.238437)scale(0.1 -0.1)">
       <use xlink:href="#DejaVuSans-30"/>
      </g>
     </g>
    </g>
    <g id="xtick_12">
     <g id="line2d_12">
      <g>
       <use xlink:href="#m59649e9a7f" x="261.558679" y="224.64" style="stroke: #000000; stroke-width: 0.8"/>
      </g>
     </g>
     <g id="text_12">
      <!-- 1 -->
      <g transform="translate(258.377429 239.238437)scale(0.1 -0.1)">
       <use xlink:href="#DejaVuSans-31"/>
      </g>
     </g>
    </g>
    <g id="xtick_13">
     <g id="line2d_13">
      <g>
       <use xlink:href="#m59649e9a7f" x="279.050842" y="224.64" style="stroke: #000000; stroke-width: 0.8"/>
      </g>
     </g>
     <g id="text_13">
      <!-- 2 -->
      <g transform="translate(275.869592 239.238437)scale(0.1 -0.1)">
       <use xlink:href="#DejaVuSans-32"/>
      </g>
     </g>
    </g>
    <g id="xtick_14">
     <g id="line2d_14">
      <g>
       <use xlink:href="#m59649e9a7f" x="296.543005" y="224.64" style="stroke: #000000; stroke-width: 0.8"/>
      </g>
     </g>
     <g id="text_14">
      <!-- 3 -->
      <g transform="translate(293.361755 239.238437)scale(0.1 -0.1)">
       <use xlink:href="#DejaVuSans-33"/>
      </g>
     </g>
    </g>
    <g id="xtick_15">
     <g id="line2d_15">
      <g>
       <use xlink:href="#m59649e9a7f" x="314.035168" y="224.64" style="stroke: #000000; stroke-width: 0.8"/>
      </g>
     </g>
     <g id="text_15">
      <!-- 4 -->
      <g transform="translate(310.853918 239.238437)scale(0.1 -0.1)">
       <use xlink:href="#DejaVuSans-34"/>
      </g>
     </g>
    </g>
    <g id="xtick_16">
     <g id="line2d_16">
      <g>
       <use xlink:href="#m59649e9a7f" x="331.527332" y="224.64" style="stroke: #000000; stroke-width: 0.8"/>
      </g>
     </g>
     <g id="text_16">
      <!-- 5 -->
      <g transform="translate(328.346082 239.238437)scale(0.1 -0.1)">
       <use xlink:href="#DejaVuSans-35"/>
      </g>
     </g>
    </g>
    <g id="xtick_17">
     <g id="line2d_17">
      <g>
       <use xlink:href="#m59649e9a7f" x="349.019495" y="224.64" style="stroke: #000000; stroke-width: 0.8"/>
      </g>
     </g>
     <g id="text_17">
      <!-- 6 -->
      <g transform="translate(345.838245 239.238437)scale(0.1 -0.1)">
       <use xlink:href="#DejaVuSans-36"/>
      </g>
     </g>
    </g>
    <g id="xtick_18">
     <g id="line2d_18">
      <g>
       <use xlink:href="#m59649e9a7f" x="366.511658" y="224.64" style="stroke: #000000; stroke-width: 0.8"/>
      </g>
     </g>
     <g id="text_18">
      <!-- 7 -->
      <g transform="translate(363.330408 239.238437)scale(0.1 -0.1)">
       <use xlink:href="#DejaVuSans-37"/>
      </g>
     </g>
    </g>
    <g id="xtick_19">
     <g id="line2d_19">
      <g>
       <use xlink:href="#m59649e9a7f" x="384.003821" y="224.64" style="stroke: #000000; stroke-width: 0.8"/>
      </g>
     </g>
     <g id="text_19">
      <!-- 8 -->
      <g transform="translate(380.822571 239.238437)scale(0.1 -0.1)">
       <use xlink:href="#DejaVuSans-38"/>
      </g>
     </g>
    </g>
    <g id="xtick_20">
     <g id="line2d_20">
      <g>
       <use xlink:href="#m59649e9a7f" x="401.495984" y="224.64" style="stroke: #000000; stroke-width: 0.8"/>
      </g>
     </g>
     <g id="text_20">
      <!-- 9 -->
      <g transform="translate(398.314734 239.238437)scale(0.1 -0.1)">
       <use xlink:href="#DejaVuSans-39"/>
      </g>
     </g>
    </g>
    <g id="xtick_21">
     <g id="line2d_21">
      <g>
       <use xlink:href="#m59649e9a7f" x="418.988147" y="224.64" style="stroke: #000000; stroke-width: 0.8"/>
      </g>
     </g>
     <g id="text_21">
      <!-- 10 -->
      <g transform="translate(412.625647 239.238437)scale(0.1 -0.1)">
       <use xlink:href="#DejaVuSans-31"/>
       <use xlink:href="#DejaVuSans-30" x="63.623047"/>
      </g>
     </g>
    </g>
    <g id="xtick_22">
     <g id="line2d_22">
      <g>
       <use xlink:href="#m59649e9a7f" x="436.48031" y="224.64" style="stroke: #000000; stroke-width: 0.8"/>
      </g>
     </g>
     <g id="text_22">
      <!-- 11 -->
      <g transform="translate(430.11781 239.238437)scale(0.1 -0.1)">
       <use xlink:href="#DejaVuSans-31"/>
       <use xlink:href="#DejaVuSans-31" x="63.623047"/>
      </g>
     </g>
    </g>
    <g id="xtick_23">
     <g id="line2d_23">
      <g>
       <use xlink:href="#m59649e9a7f" x="453.972473" y="224.64" style="stroke: #000000; stroke-width: 0.8"/>
      </g>
     </g>
     <g id="text_23">
      <!-- 12 -->
      <g transform="translate(447.609973 239.238437)scale(0.1 -0.1)">
       <use xlink:href="#DejaVuSans-31"/>
       <use xlink:href="#DejaVuSans-32" x="63.623047"/>
      </g>
     </g>
    </g>
    <g id="xtick_24">
     <g id="line2d_24">
      <g>
       <use xlink:href="#m59649e9a7f" x="471.464636" y="224.64" style="stroke: #000000; stroke-width: 0.8"/>
      </g>
     </g>
     <g id="text_24">
      <!-- 13 -->
      <g transform="translate(465.102136 239.238437)scale(0.1 -0.1)">
       <use xlink:href="#DejaVuSans-31"/>
       <use xlink:href="#DejaVuSans-33" x="63.623047"/>
      </g>
     </g>
    </g>
    <g id="xtick_25">
     <g id="line2d_25">
      <g>
       <use xlink:href="#m59649e9a7f" x="488.956799" y="224.64" style="stroke: #000000; stroke-width: 0.8"/>
      </g>
     </g>
     <g id="text_25">
      <!-- 14 -->
      <g transform="translate(482.594299 239.238437)scale(0.1 -0.1)">
       <use xlink:href="#DejaVuSans-31"/>
       <use xlink:href="#DejaVuSans-34" x="63.623047"/>
      </g>
     </g>
    </g>
    <g id="xtick_26">
     <g id="line2d_26">
      <g>
       <use xlink:href="#m59649e9a7f" x="506.448962" y="224.64" style="stroke: #000000; stroke-width: 0.8"/>
      </g>
     </g>
     <g id="text_26">
      <!-- 15 -->
      <g transform="translate(500.086462 239.238437)scale(0.1 -0.1)">
       <use xlink:href="#DejaVuSans-31"/>
       <use xlink:href="#DejaVuSans-35" x="63.623047"/>
      </g>
     </g>
    </g>
    <g id="xtick_27">
     <g id="line2d_27">
      <g>
       <use xlink:href="#m59649e9a7f" x="523.941125" y="224.64" style="stroke: #000000; stroke-width: 0.8"/>
      </g>
     </g>
     <g id="text_27">
      <!-- 16 -->
      <g transform="translate(517.578625 239.238437)scale(0.1 -0.1)">
       <use xlink:href="#DejaVuSans-31"/>
       <use xlink:href="#DejaVuSans-36" x="63.623047"/>
      </g>
     </g>
    </g>
    <g id="xtick_28">
     <g id="line2d_28">
      <g>
       <use xlink:href="#m59649e9a7f" x="541.433288" y="224.64" style="stroke: #000000; stroke-width: 0.8"/>
      </g>
     </g>
     <g id="text_28">
      <!-- 17 -->
      <g transform="translate(535.070788 239.238437)scale(0.1 -0.1)">
       <use xlink:href="#DejaVuSans-31"/>
       <use xlink:href="#DejaVuSans-37" x="63.623047"/>
      </g>
     </g>
    </g>
    <g id="xtick_29">
     <g id="line2d_29">
      <g>
       <use xlink:href="#m59649e9a7f" x="558.925451" y="224.64" style="stroke: #000000; stroke-width: 0.8"/>
      </g>
     </g>
     <g id="text_29">
      <!-- 18 -->
      <g transform="translate(552.562951 239.238437)scale(0.1 -0.1)">
       <use xlink:href="#DejaVuSans-31"/>
       <use xlink:href="#DejaVuSans-38" x="63.623047"/>
      </g>
     </g>
    </g>
    <g id="xtick_30">
     <g id="line2d_30">
      <g>
       <use xlink:href="#m59649e9a7f" x="576.417614" y="224.64" style="stroke: #000000; stroke-width: 0.8"/>
      </g>
     </g>
     <g id="text_30">
      <!-- 19 -->
      <g transform="translate(570.055114 239.238437)scale(0.1 -0.1)">
       <use xlink:href="#DejaVuSans-31"/>
       <use xlink:href="#DejaVuSans-39" x="63.623047"/>
      </g>
     </g>
    </g>
    <g id="text_31">
     <!-- N-1 n -->
     <g transform="translate(309.297656 252.916562)scale(0.1 -0.1)">
      <defs>
       <path id="DejaVuSans-4e" d="M 628 4666 
L 1478 4666 
L 3547 763 
L 3547 4666 
L 4159 4666 
L 4159 0 
L 3309 0 
L 1241 3903 
L 1241 0 
L 628 0 
L 628 4666 
z
" transform="scale(0.015625)"/>
       <path id="DejaVuSans-2d" d="M 313 2009 
L 1997 2009 
L 1997 1497 
L 313 1497 
L 313 2009 
z
" transform="scale(0.015625)"/>
       <path id="DejaVuSans-20" transform="scale(0.015625)"/>
       <path id="DejaVuSans-6e" d="M 3513 2113 
L 3513 0 
L 2938 0 
L 2938 2094 
Q 2938 2591 2744 2837 
Q 2550 3084 2163 3084 
Q 1697 3084 1428 2787 
Q 1159 2491 1159 1978 
L 1159 0 
L 581 0 
L 581 3500 
L 1159 3500 
L 1159 2956 
Q 1366 3272 1645 3428 
Q 1925 3584 2291 3584 
Q 2894 3584 3203 3211 
Q 3513 2838 3513 2113 
z
" transform="scale(0.015625)"/>
      </defs>
      <use xlink:href="#DejaVuSans-4e"/>
      <use xlink:href="#DejaVuSans-2d" x="74.804688"/>
      <use xlink:href="#DejaVuSans-31" x="110.888672"/>
      <use xlink:href="#DejaVuSans-20" x="174.511719"/>
      <use xlink:href="#DejaVuSans-6e" x="206.298828"/>
     </g>
    </g>
   </g>
   <g id="matplotlib.axis_2">
    <g id="ytick_1">
     <g id="line2d_31">
      <defs>
       <path id="m5d27ef9646" d="M 0 0 
L -3.5 0 
" style="stroke: #000000; stroke-width: 0.8"/>
      </defs>
      <g>
       <use xlink:href="#m5d27ef9646" x="43.78125" y="214.756364" style="stroke: #000000; stroke-width: 0.8"/>
      </g>
     </g>
     <g id="text_32">
      <!-- 0.0 -->
      <g transform="translate(20.878125 218.555582)scale(0.1 -0.1)">
       <defs>
        <path id="DejaVuSans-2e" d="M 684 794 
L 1344 794 
L 1344 0 
L 684 0 
L 684 794 
z
" transform="scale(0.015625)"/>
       </defs>
       <use xlink:href="#DejaVuSans-30"/>
       <use xlink:href="#DejaVuSans-2e" x="63.623047"/>
       <use xlink:href="#DejaVuSans-30" x="95.410156"/>
      </g>
     </g>
    </g>
    <g id="ytick_2">
     <g id="line2d_32">
      <g>
       <use xlink:href="#m5d27ef9646" x="43.78125" y="175.221818" style="stroke: #000000; stroke-width: 0.8"/>
      </g>
     </g>
     <g id="text_33">
      <!-- 0.2 -->
      <g transform="translate(20.878125 179.021037)scale(0.1 -0.1)">
       <use xlink:href="#DejaVuSans-30"/>
       <use xlink:href="#DejaVuSans-2e" x="63.623047"/>
       <use xlink:href="#DejaVuSans-32" x="95.410156"/>
      </g>
     </g>
    </g>
    <g id="ytick_3">
     <g id="line2d_33">
      <g>
       <use xlink:href="#m5d27ef9646" x="43.78125" y="135.687273" style="stroke: #000000; stroke-width: 0.8"/>
      </g>
     </g>
     <g id="text_34">
      <!-- 0.4 -->
      <g transform="translate(20.878125 139.486491)scale(0.1 -0.1)">
       <use xlink:href="#DejaVuSans-30"/>
       <use xlink:href="#DejaVuSans-2e" x="63.623047"/>
       <use xlink:href="#DejaVuSans-34" x="95.410156"/>
      </g>
     </g>
    </g>
    <g id="ytick_4">
     <g id="line2d_34">
      <g>
       <use xlink:href="#m5d27ef9646" x="43.78125" y="96.152727" style="stroke: #000000; stroke-width: 0.8"/>
      </g>
     </g>
     <g id="text_35">
      <!-- 0.6 -->
      <g transform="translate(20.878125 99.951946)scale(0.1 -0.1)">
       <use xlink:href="#DejaVuSans-30"/>
       <use xlink:href="#DejaVuSans-2e" x="63.623047"/>
       <use xlink:href="#DejaVuSans-36" x="95.410156"/>
      </g>
     </g>
    </g>
    <g id="ytick_5">
     <g id="line2d_35">
      <g>
       <use xlink:href="#m5d27ef9646" x="43.78125" y="56.618182" style="stroke: #000000; stroke-width: 0.8"/>
      </g>
     </g>
     <g id="text_36">
      <!-- 0.8 -->
      <g transform="translate(20.878125 60.417401)scale(0.1 -0.1)">
       <use xlink:href="#DejaVuSans-30"/>
       <use xlink:href="#DejaVuSans-2e" x="63.623047"/>
       <use xlink:href="#DejaVuSans-38" x="95.410156"/>
      </g>
     </g>
    </g>
    <g id="ytick_6">
     <g id="line2d_36">
      <g>
       <use xlink:href="#m5d27ef9646" x="43.78125" y="17.083636" style="stroke: #000000; stroke-width: 0.8"/>
      </g>
     </g>
     <g id="text_37">
      <!-- 1.0 -->
      <g transform="translate(20.878125 20.882855)scale(0.1 -0.1)">
       <use xlink:href="#DejaVuSans-31"/>
       <use xlink:href="#DejaVuSans-2e" x="63.623047"/>
       <use xlink:href="#DejaVuSans-30" x="95.410156"/>
      </g>
     </g>
    </g>
    <g id="text_38">
     <!-- x(n) -->
     <g transform="translate(14.798438 125.949687)rotate(-90)scale(0.1 -0.1)">
      <defs>
       <path id="DejaVuSans-78" d="M 3513 3500 
L 2247 1797 
L 3578 0 
L 2900 0 
L 1881 1375 
L 863 0 
L 184 0 
L 1544 1831 
L 300 3500 
L 978 3500 
L 1906 2253 
L 2834 3500 
L 3513 3500 
z
" transform="scale(0.015625)"/>
       <path id="DejaVuSans-28" d="M 1984 4856 
Q 1566 4138 1362 3434 
Q 1159 2731 1159 2009 
Q 1159 1288 1364 580 
Q 1569 -128 1984 -844 
L 1484 -844 
Q 1016 -109 783 600 
Q 550 1309 550 2009 
Q 550 2706 781 3412 
Q 1013 4119 1484 4856 
L 1984 4856 
z
" transform="scale(0.015625)"/>
       <path id="DejaVuSans-29" d="M 513 4856 
L 1013 4856 
Q 1481 4119 1714 3412 
Q 1947 2706 1947 2009 
Q 1947 1309 1714 600 
Q 1481 -109 1013 -844 
L 513 -844 
Q 928 -128 1133 580 
Q 1338 1288 1338 2009 
Q 1338 2731 1133 3434 
Q 928 4138 513 4856 
z
" transform="scale(0.015625)"/>
      </defs>
      <use xlink:href="#DejaVuSans-78"/>
      <use xlink:href="#DejaVuSans-28" x="59.179688"/>
      <use xlink:href="#DejaVuSans-6e" x="98.193359"/>
      <use xlink:href="#DejaVuSans-29" x="161.572266"/>
     </g>
    </g>
   </g>
   <g id="LineCollection_1">
    <path d="M 139.113538 214.756364 
L 139.113538 214.756364 
" clip-path="url(#p396ed5a43d)" style="fill: none; stroke: #1f77b4; stroke-width: 1.5"/>
    <path d="M 156.605701 214.756364 
L 156.605701 214.756364 
" clip-path="url(#p396ed5a43d)" style="fill: none; stroke: #1f77b4; stroke-width: 1.5"/>
    <path d="M 174.097864 214.756364 
L 174.097864 214.756364 
" clip-path="url(#p396ed5a43d)" style="fill: none; stroke: #1f77b4; stroke-width: 1.5"/>
    <path d="M 191.590027 214.756364 
L 191.590027 214.756364 
" clip-path="url(#p396ed5a43d)" style="fill: none; stroke: #1f77b4; stroke-width: 1.5"/>
    <path d="M 209.08219 214.756364 
L 209.08219 214.756364 
" clip-path="url(#p396ed5a43d)" style="fill: none; stroke: #1f77b4; stroke-width: 1.5"/>
    <path d="M 226.574353 214.756364 
L 226.574353 214.756364 
" clip-path="url(#p396ed5a43d)" style="fill: none; stroke: #1f77b4; stroke-width: 1.5"/>
    <path d="M 244.066516 214.756364 
L 244.066516 214.756364 
" clip-path="url(#p396ed5a43d)" style="fill: none; stroke: #1f77b4; stroke-width: 1.5"/>
    <path d="M 261.558679 214.756364 
L 261.558679 175.221818 
" clip-path="url(#p396ed5a43d)" style="fill: none; stroke: #1f77b4; stroke-width: 1.5"/>
    <path d="M 279.050842 214.756364 
L 279.050842 135.687273 
" clip-path="url(#p396ed5a43d)" style="fill: none; stroke: #1f77b4; stroke-width: 1.5"/>
    <path d="M 296.543005 214.756364 
L 296.543005 96.152727 
" clip-path="url(#p396ed5a43d)" style="fill: none; stroke: #1f77b4; stroke-width: 1.5"/>
    <path d="M 314.035168 214.756364 
L 314.035168 56.618182 
" clip-path="url(#p396ed5a43d)" style="fill: none; stroke: #1f77b4; stroke-width: 1.5"/>
    <path d="M 331.527332 214.756364 
L 331.527332 17.083636 
" clip-path="url(#p396ed5a43d)" style="fill: none; stroke: #1f77b4; stroke-width: 1.5"/>
    <path d="M 349.019495 214.756364 
L 349.019495 56.618182 
" clip-path="url(#p396ed5a43d)" style="fill: none; stroke: #1f77b4; stroke-width: 1.5"/>
    <path d="M 366.511658 214.756364 
L 366.511658 96.152727 
" clip-path="url(#p396ed5a43d)" style="fill: none; stroke: #1f77b4; stroke-width: 1.5"/>
    <path d="M 384.003821 214.756364 
L 384.003821 135.687273 
" clip-path="url(#p396ed5a43d)" style="fill: none; stroke: #1f77b4; stroke-width: 1.5"/>
    <path d="M 401.495984 214.756364 
L 401.495984 175.221818 
" clip-path="url(#p396ed5a43d)" style="fill: none; stroke: #1f77b4; stroke-width: 1.5"/>
    <path d="M 418.988147 214.756364 
L 418.988147 214.756364 
" clip-path="url(#p396ed5a43d)" style="fill: none; stroke: #1f77b4; stroke-width: 1.5"/>
    <path d="M 436.48031 214.756364 
L 436.48031 214.756364 
" clip-path="url(#p396ed5a43d)" style="fill: none; stroke: #1f77b4; stroke-width: 1.5"/>
    <path d="M 453.972473 214.756364 
L 453.972473 214.756364 
" clip-path="url(#p396ed5a43d)" style="fill: none; stroke: #1f77b4; stroke-width: 1.5"/>
    <path d="M 471.464636 214.756364 
L 471.464636 214.756364 
" clip-path="url(#p396ed5a43d)" style="fill: none; stroke: #1f77b4; stroke-width: 1.5"/>
   </g>
   <g id="line2d_37">
    <defs>
     <path id="mc7d9c53907" d="M 0 3 
C 0.795609 3 1.55874 2.683901 2.12132 2.12132 
C 2.683901 1.55874 3 0.795609 3 0 
C 3 -0.795609 2.683901 -1.55874 2.12132 -2.12132 
C 1.55874 -2.683901 0.795609 -3 0 -3 
C -0.795609 -3 -1.55874 -2.683901 -2.12132 -2.12132 
C -2.683901 -1.55874 -3 -0.795609 -3 0 
C -3 0.795609 -2.683901 1.55874 -2.12132 2.12132 
C -1.55874 2.683901 -0.795609 3 0 3 
z
" style="stroke: #1f77b4"/>
    </defs>
    <g clip-path="url(#p396ed5a43d)">
     <use xlink:href="#mc7d9c53907" x="139.113538" y="214.756364" style="fill: #1f77b4; stroke: #1f77b4"/>
     <use xlink:href="#mc7d9c53907" x="156.605701" y="214.756364" style="fill: #1f77b4; stroke: #1f77b4"/>
     <use xlink:href="#mc7d9c53907" x="174.097864" y="214.756364" style="fill: #1f77b4; stroke: #1f77b4"/>
     <use xlink:href="#mc7d9c53907" x="191.590027" y="214.756364" style="fill: #1f77b4; stroke: #1f77b4"/>
     <use xlink:href="#mc7d9c53907" x="209.08219" y="214.756364" style="fill: #1f77b4; stroke: #1f77b4"/>
     <use xlink:href="#mc7d9c53907" x="226.574353" y="214.756364" style="fill: #1f77b4; stroke: #1f77b4"/>
     <use xlink:href="#mc7d9c53907" x="244.066516" y="214.756364" style="fill: #1f77b4; stroke: #1f77b4"/>
     <use xlink:href="#mc7d9c53907" x="261.558679" y="175.221818" style="fill: #1f77b4; stroke: #1f77b4"/>
     <use xlink:href="#mc7d9c53907" x="279.050842" y="135.687273" style="fill: #1f77b4; stroke: #1f77b4"/>
     <use xlink:href="#mc7d9c53907" x="296.543005" y="96.152727" style="fill: #1f77b4; stroke: #1f77b4"/>
     <use xlink:href="#mc7d9c53907" x="314.035168" y="56.618182" style="fill: #1f77b4; stroke: #1f77b4"/>
     <use xlink:href="#mc7d9c53907" x="331.527332" y="17.083636" style="fill: #1f77b4; stroke: #1f77b4"/>
     <use xlink:href="#mc7d9c53907" x="349.019495" y="56.618182" style="fill: #1f77b4; stroke: #1f77b4"/>
     <use xlink:href="#mc7d9c53907" x="366.511658" y="96.152727" style="fill: #1f77b4; stroke: #1f77b4"/>
     <use xlink:href="#mc7d9c53907" x="384.003821" y="135.687273" style="fill: #1f77b4; stroke: #1f77b4"/>
     <use xlink:href="#mc7d9c53907" x="401.495984" y="175.221818" style="fill: #1f77b4; stroke: #1f77b4"/>
     <use xlink:href="#mc7d9c53907" x="418.988147" y="214.756364" style="fill: #1f77b4; stroke: #1f77b4"/>
     <use xlink:href="#mc7d9c53907" x="436.48031" y="214.756364" style="fill: #1f77b4; stroke: #1f77b4"/>
     <use xlink:href="#mc7d9c53907" x="453.972473" y="214.756364" style="fill: #1f77b4; stroke: #1f77b4"/>
     <use xlink:href="#mc7d9c53907" x="471.464636" y="214.756364" style="fill: #1f77b4; stroke: #1f77b4"/>
    </g>
   </g>
   <g id="line2d_38">
    <path d="M 139.113538 214.756364 
L 471.464636 214.756364 
" clip-path="url(#p396ed5a43d)" style="fill: none; stroke: #d62728; stroke-width: 1.5; stroke-linecap: square"/>
   </g>
   <g id="LineCollection_2">
    <path d="M 69.144886 214.756364 
L 69.144886 214.756364 
" clip-path="url(#p396ed5a43d)" style="fill: none; stroke: #1f77b4; stroke-width: 1.5"/>
    <path d="M 86.637049 214.756364 
L 86.637049 175.221818 
" clip-path="url(#p396ed5a43d)" style="fill: none; stroke: #1f77b4; stroke-width: 1.5"/>
    <path d="M 104.129212 214.756364 
L 104.129212 135.687273 
" clip-path="url(#p396ed5a43d)" style="fill: none; stroke: #1f77b4; stroke-width: 1.5"/>
    <path d="M 121.621375 214.756364 
L 121.621375 96.152727 
" clip-path="url(#p396ed5a43d)" style="fill: none; stroke: #1f77b4; stroke-width: 1.5"/>
    <path d="M 139.113538 214.756364 
L 139.113538 56.618182 
" clip-path="url(#p396ed5a43d)" style="fill: none; stroke: #1f77b4; stroke-width: 1.5"/>
    <path d="M 156.605701 214.756364 
L 156.605701 17.083636 
" clip-path="url(#p396ed5a43d)" style="fill: none; stroke: #1f77b4; stroke-width: 1.5"/>
    <path d="M 174.097864 214.756364 
L 174.097864 56.618182 
" clip-path="url(#p396ed5a43d)" style="fill: none; stroke: #1f77b4; stroke-width: 1.5"/>
    <path d="M 191.590027 214.756364 
L 191.590027 96.152727 
" clip-path="url(#p396ed5a43d)" style="fill: none; stroke: #1f77b4; stroke-width: 1.5"/>
    <path d="M 209.08219 214.756364 
L 209.08219 135.687273 
" clip-path="url(#p396ed5a43d)" style="fill: none; stroke: #1f77b4; stroke-width: 1.5"/>
    <path d="M 226.574353 214.756364 
L 226.574353 175.221818 
" clip-path="url(#p396ed5a43d)" style="fill: none; stroke: #1f77b4; stroke-width: 1.5"/>
    <path d="M 244.066516 214.756364 
L 244.066516 214.756364 
" clip-path="url(#p396ed5a43d)" style="fill: none; stroke: #1f77b4; stroke-width: 1.5"/>
    <path d="M 261.558679 214.756364 
L 261.558679 175.221818 
" clip-path="url(#p396ed5a43d)" style="fill: none; stroke: #1f77b4; stroke-width: 1.5"/>
    <path d="M 279.050842 214.756364 
L 279.050842 135.687273 
" clip-path="url(#p396ed5a43d)" style="fill: none; stroke: #1f77b4; stroke-width: 1.5"/>
    <path d="M 296.543005 214.756364 
L 296.543005 96.152727 
" clip-path="url(#p396ed5a43d)" style="fill: none; stroke: #1f77b4; stroke-width: 1.5"/>
    <path d="M 314.035168 214.756364 
L 314.035168 56.618182 
" clip-path="url(#p396ed5a43d)" style="fill: none; stroke: #1f77b4; stroke-width: 1.5"/>
    <path d="M 331.527332 214.756364 
L 331.527332 17.083636 
" clip-path="url(#p396ed5a43d)" style="fill: none; stroke: #1f77b4; stroke-width: 1.5"/>
    <path d="M 349.019495 214.756364 
L 349.019495 56.618182 
" clip-path="url(#p396ed5a43d)" style="fill: none; stroke: #1f77b4; stroke-width: 1.5"/>
    <path d="M 366.511658 214.756364 
L 366.511658 96.152727 
" clip-path="url(#p396ed5a43d)" style="fill: none; stroke: #1f77b4; stroke-width: 1.5"/>
    <path d="M 384.003821 214.756364 
L 384.003821 135.687273 
" clip-path="url(#p396ed5a43d)" style="fill: none; stroke: #1f77b4; stroke-width: 1.5"/>
    <path d="M 401.495984 214.756364 
L 401.495984 175.221818 
" clip-path="url(#p396ed5a43d)" style="fill: none; stroke: #1f77b4; stroke-width: 1.5"/>
    <path d="M 418.988147 214.756364 
L 418.988147 214.756364 
" clip-path="url(#p396ed5a43d)" style="fill: none; stroke: #1f77b4; stroke-width: 1.5"/>
    <path d="M 436.48031 214.756364 
L 436.48031 175.221818 
" clip-path="url(#p396ed5a43d)" style="fill: none; stroke: #1f77b4; stroke-width: 1.5"/>
    <path d="M 453.972473 214.756364 
L 453.972473 135.687273 
" clip-path="url(#p396ed5a43d)" style="fill: none; stroke: #1f77b4; stroke-width: 1.5"/>
    <path d="M 471.464636 214.756364 
L 471.464636 96.152727 
" clip-path="url(#p396ed5a43d)" style="fill: none; stroke: #1f77b4; stroke-width: 1.5"/>
    <path d="M 488.956799 214.756364 
L 488.956799 56.618182 
" clip-path="url(#p396ed5a43d)" style="fill: none; stroke: #1f77b4; stroke-width: 1.5"/>
    <path d="M 506.448962 214.756364 
L 506.448962 17.083636 
" clip-path="url(#p396ed5a43d)" style="fill: none; stroke: #1f77b4; stroke-width: 1.5"/>
    <path d="M 523.941125 214.756364 
L 523.941125 56.618182 
" clip-path="url(#p396ed5a43d)" style="fill: none; stroke: #1f77b4; stroke-width: 1.5"/>
    <path d="M 541.433288 214.756364 
L 541.433288 96.152727 
" clip-path="url(#p396ed5a43d)" style="fill: none; stroke: #1f77b4; stroke-width: 1.5"/>
    <path d="M 558.925451 214.756364 
L 558.925451 135.687273 
" clip-path="url(#p396ed5a43d)" style="fill: none; stroke: #1f77b4; stroke-width: 1.5"/>
    <path d="M 576.417614 214.756364 
L 576.417614 175.221818 
" clip-path="url(#p396ed5a43d)" style="fill: none; stroke: #1f77b4; stroke-width: 1.5"/>
   </g>
   <g id="line2d_39">
    <g clip-path="url(#p396ed5a43d)">
     <use xlink:href="#mc7d9c53907" x="69.144886" y="214.756364" style="fill: #1f77b4; stroke: #1f77b4"/>
     <use xlink:href="#mc7d9c53907" x="86.637049" y="175.221818" style="fill: #1f77b4; stroke: #1f77b4"/>
     <use xlink:href="#mc7d9c53907" x="104.129212" y="135.687273" style="fill: #1f77b4; stroke: #1f77b4"/>
     <use xlink:href="#mc7d9c53907" x="121.621375" y="96.152727" style="fill: #1f77b4; stroke: #1f77b4"/>
     <use xlink:href="#mc7d9c53907" x="139.113538" y="56.618182" style="fill: #1f77b4; stroke: #1f77b4"/>
     <use xlink:href="#mc7d9c53907" x="156.605701" y="17.083636" style="fill: #1f77b4; stroke: #1f77b4"/>
     <use xlink:href="#mc7d9c53907" x="174.097864" y="56.618182" style="fill: #1f77b4; stroke: #1f77b4"/>
     <use xlink:href="#mc7d9c53907" x="191.590027" y="96.152727" style="fill: #1f77b4; stroke: #1f77b4"/>
     <use xlink:href="#mc7d9c53907" x="209.08219" y="135.687273" style="fill: #1f77b4; stroke: #1f77b4"/>
     <use xlink:href="#mc7d9c53907" x="226.574353" y="175.221818" style="fill: #1f77b4; stroke: #1f77b4"/>
     <use xlink:href="#mc7d9c53907" x="244.066516" y="214.756364" style="fill: #1f77b4; stroke: #1f77b4"/>
     <use xlink:href="#mc7d9c53907" x="261.558679" y="175.221818" style="fill: #1f77b4; stroke: #1f77b4"/>
     <use xlink:href="#mc7d9c53907" x="279.050842" y="135.687273" style="fill: #1f77b4; stroke: #1f77b4"/>
     <use xlink:href="#mc7d9c53907" x="296.543005" y="96.152727" style="fill: #1f77b4; stroke: #1f77b4"/>
     <use xlink:href="#mc7d9c53907" x="314.035168" y="56.618182" style="fill: #1f77b4; stroke: #1f77b4"/>
     <use xlink:href="#mc7d9c53907" x="331.527332" y="17.083636" style="fill: #1f77b4; stroke: #1f77b4"/>
     <use xlink:href="#mc7d9c53907" x="349.019495" y="56.618182" style="fill: #1f77b4; stroke: #1f77b4"/>
     <use xlink:href="#mc7d9c53907" x="366.511658" y="96.152727" style="fill: #1f77b4; stroke: #1f77b4"/>
     <use xlink:href="#mc7d9c53907" x="384.003821" y="135.687273" style="fill: #1f77b4; stroke: #1f77b4"/>
     <use xlink:href="#mc7d9c53907" x="401.495984" y="175.221818" style="fill: #1f77b4; stroke: #1f77b4"/>
     <use xlink:href="#mc7d9c53907" x="418.988147" y="214.756364" style="fill: #1f77b4; stroke: #1f77b4"/>
     <use xlink:href="#mc7d9c53907" x="436.48031" y="175.221818" style="fill: #1f77b4; stroke: #1f77b4"/>
     <use xlink:href="#mc7d9c53907" x="453.972473" y="135.687273" style="fill: #1f77b4; stroke: #1f77b4"/>
     <use xlink:href="#mc7d9c53907" x="471.464636" y="96.152727" style="fill: #1f77b4; stroke: #1f77b4"/>
     <use xlink:href="#mc7d9c53907" x="488.956799" y="56.618182" style="fill: #1f77b4; stroke: #1f77b4"/>
     <use xlink:href="#mc7d9c53907" x="506.448962" y="17.083636" style="fill: #1f77b4; stroke: #1f77b4"/>
     <use xlink:href="#mc7d9c53907" x="523.941125" y="56.618182" style="fill: #1f77b4; stroke: #1f77b4"/>
     <use xlink:href="#mc7d9c53907" x="541.433288" y="96.152727" style="fill: #1f77b4; stroke: #1f77b4"/>
     <use xlink:href="#mc7d9c53907" x="558.925451" y="135.687273" style="fill: #1f77b4; stroke: #1f77b4"/>
     <use xlink:href="#mc7d9c53907" x="576.417614" y="175.221818" style="fill: #1f77b4; stroke: #1f77b4"/>
    </g>
   </g>
   <g id="line2d_40">
    <path d="M 69.144886 214.756364 
L 576.417614 214.756364 
" clip-path="url(#p396ed5a43d)" style="fill: none; stroke: #d62728; stroke-width: 1.5; stroke-linecap: square"/>
   </g>
   <g id="patch_3">
    <path d="M 43.78125 224.64 
L 43.78125 7.2 
" style="fill: none; stroke: #000000; stroke-width: 0.8; stroke-linejoin: miter; stroke-linecap: square"/>
   </g>
   <g id="patch_4">
    <path d="M 601.78125 224.64 
L 601.78125 7.2 
" style="fill: none; stroke: #000000; stroke-width: 0.8; stroke-linejoin: miter; stroke-linecap: square"/>
   </g>
   <g id="patch_5">
    <path d="M 43.78125 224.64 
L 601.78125 224.64 
" style="fill: none; stroke: #000000; stroke-width: 0.8; stroke-linejoin: miter; stroke-linecap: square"/>
   </g>
   <g id="patch_6">
    <path d="M 43.78125 7.2 
L 601.78125 7.2 
" style="fill: none; stroke: #000000; stroke-width: 0.8; stroke-linejoin: miter; stroke-linecap: square"/>
   </g>
  </g>
 </g>
 <defs>
  <clipPath id="p396ed5a43d">
   <rect x="43.78125" y="7.2" width="558" height="217.44"/>
  </clipPath>
 </defs>
</svg>
