<?xml version="1.0" encoding="UTF-8" standalone="no"?>
<!-- Created with matplotlib (https://matplotlib.org/) -->

<svg
   xmlns:dc="http://purl.org/dc/elements/1.1/"
   xmlns:cc="http://creativecommons.org/ns#"
   xmlns:rdf="http://www.w3.org/1999/02/22-rdf-syntax-ns#"
   xmlns:svg="http://www.w3.org/2000/svg"
   xmlns="http://www.w3.org/2000/svg"
   xmlns:xlink="http://www.w3.org/1999/xlink"
   xmlns:sodipodi="http://sodipodi.sourceforge.net/DTD/sodipodi-0.dtd"
   xmlns:inkscape="http://www.inkscape.org/namespaces/inkscape"
   height="288pt"
   version="1.1"
   viewBox="0 0 432 288"
   width="432pt"
   id="svg375"
   sodipodi:docname="img02.svg"
   inkscape:version="0.92.5 (2060ec1f9f, 2020-04-08)">
  <metadata
     id="metadata379">
    <rdf:RDF>
      <cc:Work
         rdf:about="">
        <dc:format>image/svg+xml</dc:format>
        <dc:type
           rdf:resource="http://purl.org/dc/dcmitype/StillImage" />
      </cc:Work>
    </rdf:RDF>
  </metadata>
  <sodipodi:namedview
     pagecolor="#ffffff"
     bordercolor="#666666"
     borderopacity="1"
     objecttolerance="10"
     gridtolerance="10"
     guidetolerance="10"
     inkscape:pageopacity="0"
     inkscape:pageshadow="2"
     inkscape:window-width="1366"
     inkscape:window-height="713"
     id="namedview377"
     showgrid="false"
     inkscape:zoom="0.96527777"
     inkscape:cx="321.47898"
     inkscape:cy="9.9351949"
     inkscape:window-x="0"
     inkscape:window-y="0"
     inkscape:window-maximized="1"
     inkscape:current-layer="axes_1"
     showguides="true"
     inkscape:guide-bbox="true">
    <sodipodi:guide
       position="255.43166,46.424461"
       orientation="0,1"
       id="guide1390"
       inkscape:locked="false" />
    <sodipodi:guide
       position="291.18556,242.83776"
       orientation="0,1"
       id="guide1392"
       inkscape:locked="false" />
  </sodipodi:namedview>
  <defs
     id="defs4">
    <style
       type="text/css"
       id="style2">
*{stroke-linecap:butt;stroke-linejoin:round;}
  </style>
  </defs>
  <g
     id="figure_1">
    <g
       id="patch_1" />
    <g
       id="axes_1">
      <g
         id="patch_2"
         inkscape:export-xdpi="300"
         inkscape:export-ydpi="300" />
      <g
         id="matplotlib.axis_1"
         inkscape:export-xdpi="300"
         inkscape:export-ydpi="300">
        <g
           id="xtick_1"
           inkscape:export-xdpi="300"
           inkscape:export-ydpi="300">
          <g
             id="line2d_2">
            <defs
               id="defs16">
              <path
                 d="M 0 0  L 0 3.5  "
                 id="m95fce6b981"
                 style="stroke:#000000;stroke-width:0.8;" />
            </defs>
            <g
               id="g20">
              <use
                 style="stroke:#000000;stroke-width:0.8;"
                 x="76.077068"
                 xlink:href="#m95fce6b981"
                 y="252"
                 id="use18" />
            </g>
          </g>
          <g
             id="text_1">
            <!-- $-2\pi$ -->
            <defs
               id="defs26">
              <path
                 d="M 10.59375 35.5  L 73.1875 35.5  L 73.1875 27.203125  L 10.59375 27.203125  z "
                 id="DejaVuSans-8722" />
              <path
                 d="M 19.1875 8.296875  L 53.609375 8.296875  L 53.609375 0  L 7.328125 0  L 7.328125 8.296875  Q 12.9375 14.109375 22.625 23.890625  Q 32.328125 33.6875 34.8125 36.53125  Q 39.546875 41.84375 41.421875 45.53125  Q 43.3125 49.21875 43.3125 52.78125  Q 43.3125 58.59375 39.234375 62.25  Q 35.15625 65.921875 28.609375 65.921875  Q 23.96875 65.921875 18.8125 64.3125  Q 13.671875 62.703125 7.8125 59.421875  L 7.8125 69.390625  Q 13.765625 71.78125 18.9375 73  Q 24.125 74.21875 28.421875 74.21875  Q 39.75 74.21875 46.484375 68.546875  Q 53.21875 62.890625 53.21875 53.421875  Q 53.21875 48.921875 51.53125 44.890625  Q 49.859375 40.875 45.40625 35.40625  Q 44.1875 33.984375 37.640625 27.21875  Q 31.109375 20.453125 19.1875 8.296875  z "
                 id="DejaVuSans-50" />
              <path
                 d="M 9.125 54.6875  L 61.53125 54.6875  L 59.765625 45.703125  L 52.875 45.703125  L 46.34375 12.109375  Q 45.65625 8.59375 46.578125 7.03125  Q 47.46875 5.515625 50.140625 5.515625  Q 50.875 5.515625 51.953125 5.671875  Q 53.078125 5.765625 53.421875 5.8125  L 52.15625 -0.6875  Q 50.34375 -1.3125 48.484375 -1.609375  Q 46.578125 -1.90625 44.78125 -1.90625  Q 38.921875 -1.90625 37.3125 1.265625  Q 35.6875 4.5 37.359375 13.09375  L 43.703125 45.703125  L 23.53125 45.703125  L 14.65625 0  L 5.46875 0  L 14.359375 45.703125  L 7.375 45.703125  z "
                 id="DejaVuSans-Oblique-960" />
            </defs>
            <g
               transform="translate(65.677068 266.598437)scale(0.1 -0.1)"
               id="g34">
              <use
                 transform="translate(0 0.78125)"
                 xlink:href="#DejaVuSans-8722"
                 id="use28" />
              <use
                 transform="translate(83.789062 0.78125)"
                 xlink:href="#DejaVuSans-50"
                 id="use30" />
              <use
                 transform="translate(147.412109 0.78125)"
                 xlink:href="#DejaVuSans-Oblique-960"
                 id="use32" />
            </g>
          </g>
        </g>
        <g
           id="xtick_3"
           inkscape:export-xdpi="300"
           inkscape:export-ydpi="300"
           transform="translate(-28.569149)"
           style="stroke-linecap:butt;stroke-linejoin:round">
          <g
             id="line2d_6"
             style="stroke-linecap:butt;stroke-linejoin:round">
            <g
               id="g69"
               style="stroke-linecap:butt;stroke-linejoin:round">
              <use
                 style="stroke:#000000;stroke-width:0.80000001;stroke-linecap:butt;stroke-linejoin:round"
                 x="172.95903"
                 xlink:href="#m95fce6b981"
                 y="252"
                 id="use67"
                 width="100%"
                 height="100%" />
            </g>
          </g>
          <g
             id="text_3"
             style="stroke-linecap:butt;stroke-linejoin:round">
            <!-- $-\pi/2$ -->
            <g
               transform="matrix(0.1,0,0,-0.1,160.85902,266.59844)"
               id="g80"
               style="stroke-linecap:butt;stroke-linejoin:round">
              <use
                 transform="translate(0,0.78125)"
                 xlink:href="#DejaVuSans-8722"
                 id="use72"
                 style="stroke-linecap:butt;stroke-linejoin:round"
                 x="0"
                 y="0"
                 width="100%"
                 height="100%" />
              <use
                 transform="translate(83.789062,0.78125)"
                 xlink:href="#DejaVuSans-Oblique-960"
                 id="use74"
                 style="stroke-linecap:butt;stroke-linejoin:round"
                 x="0"
                 y="0"
                 width="100%"
                 height="100%" />
            </g>
          </g>
        </g>
        <g
           id="xtick_4"
           inkscape:export-xdpi="300"
           inkscape:export-ydpi="300">
          <g
             id="line2d_7"
             transform="matrix(1,0,0,0.59621707,0,101.7533)"
             style="stroke-linecap:butt;stroke-linejoin:round">
            <path
               clip-path="url(#p93e8b210de)"
               d="M 221.4,252 V 34.56"
               style="fill:none;stroke:#b0b0b0;stroke-width:0.80000001;stroke-linecap:square;stroke-linejoin:round"
               id="path84"
               inkscape:connector-curvature="0" />
          </g>
          <g
             id="line2d_8">
            <g
               id="g89">
              <use
                 style="stroke:#000000;stroke-width:0.8;"
                 x="221.4"
                 xlink:href="#m95fce6b981"
                 y="252"
                 id="use87" />
            </g>
          </g>
          <g
             id="text_4">
            <!-- 0 -->
            <defs
               id="defs93">
              <path
                 d="M 31.78125 66.40625  Q 24.171875 66.40625 20.328125 58.90625  Q 16.5 51.421875 16.5 36.375  Q 16.5 21.390625 20.328125 13.890625  Q 24.171875 6.390625 31.78125 6.390625  Q 39.453125 6.390625 43.28125 13.890625  Q 47.125 21.390625 47.125 36.375  Q 47.125 51.421875 43.28125 58.90625  Q 39.453125 66.40625 31.78125 66.40625  z M 31.78125 74.21875  Q 44.046875 74.21875 50.515625 64.515625  Q 56.984375 54.828125 56.984375 36.375  Q 56.984375 17.96875 50.515625 8.265625  Q 44.046875 -1.421875 31.78125 -1.421875  Q 19.53125 -1.421875 13.0625 8.265625  Q 6.59375 17.96875 6.59375 36.375  Q 6.59375 54.828125 13.0625 64.515625  Q 19.53125 74.21875 31.78125 74.21875  z "
                 id="DejaVuSans-48" />
            </defs>
            <g
               transform="translate(218.21875 266.598437)scale(0.1 -0.1)"
               id="g97">
              <use
                 xlink:href="#DejaVuSans-48"
                 id="use95" />
            </g>
          </g>
        </g>
        <g
           id="xtick_5"
           inkscape:export-xdpi="300"
           inkscape:export-ydpi="300"
           transform="translate(28.019742)"
           style="stroke-linecap:butt;stroke-linejoin:round">
          <g
             id="line2d_10"
             style="stroke-linecap:butt;stroke-linejoin:round">
            <g
               id="g106"
               style="stroke-linecap:butt;stroke-linejoin:round">
              <use
                 style="stroke:#000000;stroke-width:0.80000001;stroke-linecap:butt;stroke-linejoin:round"
                 x="269.84097"
                 xlink:href="#m95fce6b981"
                 y="252"
                 id="use104"
                 width="100%"
                 height="100%" />
            </g>
          </g>
          <g
             id="text_5"
             style="stroke-linecap:butt;stroke-linejoin:round">
            <!-- $\pi/2$ -->
            <g
               transform="matrix(0.1,0,0,-0.1,261.94098,266.59844)"
               id="g115"
               style="stroke-linecap:butt;stroke-linejoin:round">
              <use
                 transform="translate(45,0.78125)"
                 xlink:href="#DejaVuSans-Oblique-960"
                 id="use109"
                 style="stroke-linecap:butt;stroke-linejoin:round"
                 x="0"
                 y="0"
                 width="100%"
                 height="100%" />
            </g>
          </g>
        </g>
        <g
           id="xtick_7">
          <g
             id="line2d_14"
             inkscape:export-xdpi="300"
             inkscape:export-ydpi="300">
            <g
               id="g144">
              <use
                 style="stroke:#000000;stroke-width:0.8;"
                 x="366.722932"
                 xlink:href="#m95fce6b981"
                 y="252"
                 id="use142" />
            </g>
          </g>
          <g
             id="text_7"
             inkscape:export-xdpi="300"
             inkscape:export-ydpi="300">
            <!-- $2\pi$ -->
            <g
               transform="translate(360.522932 266.598437)scale(0.1 -0.1)"
               id="g151">
              <use
                 transform="translate(0 0.78125)"
                 xlink:href="#DejaVuSans-50"
                 id="use147" />
              <use
                 transform="translate(63.623047 0.78125)"
                 xlink:href="#DejaVuSans-Oblique-960"
                 id="use149" />
            </g>
          </g>
          <g
             transform="matrix(0.99999997,0,0,-0.99999997,66.050162,370.62251)"
             id="g1286"
             style="stroke-linecap:butt;stroke-linejoin:round">
            <text
               y="-247.6339"
               x="160.19099"
               transform="scale(1,-1)"
               style="font-variant:normal;font-weight:normal;font-size:10.90909958px;font-family:CMSSI10;-inkscape-font-specification:CMSSI10;writing-mode:lr-tb;fill:#000000;fill-opacity:1;fill-rule:nonzero;stroke:none;stroke-linecap:butt;stroke-linejoin:round"
               id="text118">
              <tspan
                 x="160.19099"
                 y="-247.6339"
                 id="tspan116"
                 style="stroke-linecap:butt;stroke-linejoin:round">|H</tspan>
            </text>
            <text
               transform="matrix(1,0,0,-1,171.801,247.618)"
               style="font-variant:normal;font-weight:normal;font-size:10.90909958px;font-family:CMSS10;-inkscape-font-specification:CMSS10;writing-mode:lr-tb;fill:#000000;fill-opacity:1;fill-rule:nonzero;stroke:none;stroke-linecap:butt;stroke-linejoin:round"
               id="text122">
              <tspan
                 x="0"
                 y="0"
                 id="tspan120"
                 style="stroke-linecap:butt;stroke-linejoin:round">(</tspan>
            </text>
            <text
               transform="matrix(1,0,0,-1,176.044,247.618)"
               style="font-variant:normal;font-weight:normal;font-size:10.90909958px;font-family:CMSSI10;-inkscape-font-specification:CMSSI10;writing-mode:lr-tb;fill:#000000;fill-opacity:1;fill-rule:nonzero;stroke:none;stroke-linecap:butt;stroke-linejoin:round"
               id="text126">
              <tspan
                 x="0"
                 y="0"
                 id="tspan124"
                 style="stroke-linecap:butt;stroke-linejoin:round">e</tspan>
            </text>
            <text
               transform="matrix(1,0,0,-1,181.632,252.122)"
               style="font-variant:normal;font-weight:normal;font-size:7.97009993px;font-family:CMSSI8;-inkscape-font-specification:CMSSI8;writing-mode:lr-tb;fill:#000000;fill-opacity:1;fill-rule:nonzero;stroke:none;stroke-linecap:butt;stroke-linejoin:round"
               id="text130">
              <tspan
                 x="0"
                 y="0"
                 id="tspan128"
                 style="stroke-linecap:butt;stroke-linejoin:round">j</tspan>
            </text>
            <text
               transform="matrix(1,0,0,-1,184.619,252.122)"
               style="font-variant:normal;font-weight:normal;font-size:7.97009993px;font-family:CMMI8;-inkscape-font-specification:CMMI8;writing-mode:lr-tb;fill:#000000;fill-opacity:1;fill-rule:nonzero;stroke:none;stroke-linecap:butt;stroke-linejoin:round"
               id="text134">
              <tspan
                 x="0"
                 y="0"
                 id="tspan132"
                 style="stroke-linecap:butt;stroke-linejoin:round">ω</tspan>
            </text>
            <text
               transform="matrix(1,0,0,-1,190.669,247.618)"
               style="font-variant:normal;font-weight:normal;font-size:10.90909958px;font-family:CMSS10;-inkscape-font-specification:CMSS10;writing-mode:lr-tb;fill:#000000;fill-opacity:1;fill-rule:nonzero;stroke:none;stroke-linecap:butt;stroke-linejoin:round"
               id="text138">
              <tspan
                 x="0"
                 y="0"
                 id="tspan136"
                 style="stroke-linecap:butt;stroke-linejoin:round">)</tspan>
            </text>
            <text
               transform="matrix(1,0,0,-1,197.942,254.429)"
               style="font-variant:normal;font-weight:normal;font-size:7.97009993px;font-family:CMSS8;-inkscape-font-specification:CMSS8;writing-mode:lr-tb;fill:#000000;fill-opacity:1;fill-rule:nonzero;stroke:none;stroke-linecap:butt;stroke-linejoin:round"
               id="text146">
              <tspan
                 x="0"
                 y="0"
                 id="tspan144"
                 style="stroke-linecap:butt;stroke-linejoin:round">2</tspan>
            </text>
            <text
               transform="scale(1,-1)"
               y="-247.63388"
               x="193.93062"
               style="font-variant:normal;font-weight:normal;font-size:10.90909958px;font-family:CMSSI10;-inkscape-font-specification:CMSSI10;writing-mode:lr-tb;fill:#000000;fill-opacity:1;fill-rule:nonzero;stroke:none;stroke-width:0.99999994;stroke-linecap:butt;stroke-linejoin:round"
               id="text118-3">
              <tspan
                 x="193.93062"
                 y="-247.63388"
                 id="tspan116-6"
                 style="stroke-width:0.99999994;stroke-linecap:butt;stroke-linejoin:round">|</tspan>
            </text>
          </g>
        </g>
      </g>
      <g
         id="matplotlib.axis_2"
         inkscape:export-xdpi="300"
         inkscape:export-ydpi="300" />
      <g
         id="line2d_33"
         inkscape:export-xdpi="300"
         inkscape:export-ydpi="300"
         transform="matrix(1,0,0,0.54586667,0,109.95134)"
         style="stroke-linecap:butt;stroke-linejoin:round">
        <path
           clip-path="url(#p93e8b210de)"
           d="m 69.218182,44.443636 1.218673,0.125085 1.218673,0.374938 1.218673,0.623843 1.218674,0.871167 1.218673,1.116288 1.523341,1.735697 1.523342,2.107373 1.523341,2.470717 1.82801,3.430617 1.82801,3.920156 2.132678,5.162313 2.132678,5.75814 2.437347,7.252888 2.742015,8.928262 3.046683,10.740268 3.656019,13.794932 4.570028,18.17827 11.57739,46.48749 3.65602,13.55272 3.04668,10.47602 2.74202,8.64556 2.43735,6.96892 2.13267,5.48678 2.13268,4.87179 1.82801,3.65759 1.82801,3.15711 1.52334,2.23557 1.52334,1.86664 1.52335,1.49033 1.21867,0.91731 1.21867,0.67036 1.21868,0.4217 1.21867,0.17197 1.21867,-0.0782 1.21868,-0.32814 1.21867,-0.57728 1.21867,-0.82494 1.21868,-1.07053 1.52334,-1.67931 1.52334,-2.05212 1.52334,-2.4168 1.82801,-3.368 1.82801,-3.86012 2.13268,-5.09602 2.13268,-5.69636 2.43734,-7.18841 2.74202,-8.86433 3.04668,-10.68087 3.65602,-13.74107 4.57002,-18.13937 12.18674,-48.86573 3.65602,-13.453512 3.04668,-10.369697 2.74201,-8.532955 2.43735,-6.856574 2.13268,-5.379947 2.13268,-4.757854 1.82801,-3.554944 1.82801,-3.050489 1.52334,-2.144106 1.52334,-1.773198 1.52334,-1.395277 1.21867,-0.84036 1.21868,-0.592802 1.21867,-0.343746 1.21867,-0.09382 1.21868,0.156347 1.21867,0.406116 1.21867,0.654857 1.21868,0.901941 1.21867,1.146742 1.52334,1.773198 1.52334,2.144106 1.52334,2.506537 1.82801,3.472198 1.82801,3.959981 2.13268,5.206254 2.13268,5.799046 2.43735,7.295511 2.74201,8.970442 3.04668,10.779339 3.65602,13.830154 4.8747,19.43882 10.66339,42.87952 3.65602,13.66734 3.04668,10.60019 2.74202,8.77786 2.43734,7.10146 2.13268,5.61319 2.13268,5.00692 1.82801,3.77956 1.82801,3.28402 1.52334,2.34459 1.52334,1.97816 1.52334,1.60391 1.21868,1.00936 1.21867,0.7632 1.21867,0.5151 1.21867,0.26571 1.21868,0.0156 1.21867,-0.23448 1.21868,-0.48398 1.21867,-0.73228 1.21867,-0.97872 1.52334,-1.56611 1.52334,-1.94106 1.52335,-2.30834 1.82801,-3.24185 1.82801,-3.73905 1.82801,-4.21496 2.13267,-5.48678 2.43735,-6.96892 2.43735,-7.64599 2.74201,-9.31448 3.35135,-12.24024 3.96069,-15.37604 6.39803,-25.91298 6.39804,-25.66506 3.96069,-14.980202 3.04668,-10.740268 2.74201,-8.928262 2.43735,-7.252888 2.43735,-6.533077 2.13268,-5.073817 1.82801,-3.840043 1.82801,-3.347051 1.82801,-2.835005 1.52334,-1.959621 1.52334,-1.585021 1.21867,-0.994042 1.21868,-0.747741 1.21867,-0.499549 1.21867,-0.25009 0.60934,-0.03128 v 0"
           style="fill:none;stroke:#1f77b4;stroke-width:3;stroke-linecap:square;stroke-linejoin:round"
           id="path352"
           inkscape:connector-curvature="0" />
      </g>
      <g
         id="patch_5"
         inkscape:export-xdpi="300"
         inkscape:export-ydpi="300">
        <path
           d="M 54 252  L 388.8 252  "
           style="fill:none;stroke:#000000;stroke-linecap:square;stroke-linejoin:miter;stroke-width:0.8;"
           id="path361" />
      </g>
      <g
         id="legend_1"
         inkscape:export-xdpi="300"
         inkscape:export-ydpi="300" />
      <g
         transform="matrix(0.99999997,0,0,-0.99999997,5.8387279,348.11329)"
         id="g1349"
         style="stroke-linecap:butt;stroke-linejoin:round"
         inkscape:export-xdpi="300"
         inkscape:export-ydpi="300">
        <text
           transform="matrix(1,0,0,-1,178.69,219.445)"
           style="font-variant:normal;font-weight:normal;font-size:10.90909958px;font-family:CMSS10;-inkscape-font-specification:CMSS10;writing-mode:lr-tb;fill:#000000;fill-opacity:1;fill-rule:nonzero;stroke:none;stroke-linecap:butt;stroke-linejoin:round"
           id="text150">
          <tspan
             x="0"
             y="0"
             id="tspan148"
             style="stroke-linecap:butt;stroke-linejoin:round">1</tspan>
        </text>
        <g
           id="g152"
           transform="translate(162.74,214.793)"
           style="stroke-linecap:butt;stroke-linejoin:round">
          <path
             d="M 0,0 H 37.354"
             style="fill:none;stroke:#000000;stroke-width:0.43599999;stroke-linecap:butt;stroke-linejoin:miter;stroke-miterlimit:10;stroke-dasharray:none;stroke-opacity:1"
             id="path154"
             inkscape:connector-curvature="0" />
        </g>
        <text
           transform="matrix(1,0,0,-1,162.74,204.582)"
           style="font-variant:normal;font-weight:normal;font-size:10.90909958px;font-family:CMSS10;-inkscape-font-specification:CMSS10;writing-mode:lr-tb;fill:#000000;fill-opacity:1;fill-rule:nonzero;stroke:none;stroke-linecap:butt;stroke-linejoin:round"
           id="text158">
          <tspan
             x="0 4.2425489"
             y="0"
             sodipodi:role="line"
             id="tspan156"
             style="stroke-linecap:butt;stroke-linejoin:round">(1</tspan>
        </text>
        <text
           transform="matrix(1,0,0,-1,174.861,204.582)"
           style="font-variant:normal;font-weight:normal;font-size:10.90909958px;font-family:CMSY10;-inkscape-font-specification:CMSY10;writing-mode:lr-tb;fill:#000000;fill-opacity:1;fill-rule:nonzero;stroke:none;stroke-linecap:butt;stroke-linejoin:round"
           id="text162">
          <tspan
             x="0"
             y="0"
             id="tspan160"
             style="stroke-linecap:butt;stroke-linejoin:round">−</tspan>
        </text>
        <text
           transform="matrix(1,0,0,-1,185.77,204.582)"
           style="font-variant:normal;font-weight:normal;font-size:10.90909958px;font-family:CMSSI10;-inkscape-font-specification:CMSSI10;writing-mode:lr-tb;fill:#000000;fill-opacity:1;fill-rule:nonzero;stroke:none;stroke-linecap:butt;stroke-linejoin:round"
           id="text166">
          <tspan
             x="0"
             y="0"
             id="tspan164"
             style="stroke-linecap:butt;stroke-linejoin:round">a</tspan>
        </text>
        <text
           transform="matrix(1,0,0,-1,191.12,204.582)"
           style="font-variant:normal;font-weight:normal;font-size:10.90909958px;font-family:CMSS10;-inkscape-font-specification:CMSS10;writing-mode:lr-tb;fill:#000000;fill-opacity:1;fill-rule:nonzero;stroke:none;stroke-linecap:butt;stroke-linejoin:round"
           id="text170">
          <tspan
             x="0"
             y="0"
             id="tspan168"
             style="stroke-linecap:butt;stroke-linejoin:round">)</tspan>
        </text>
        <text
           transform="matrix(1,0,0,-1,195.362,207.734)"
           style="font-variant:normal;font-weight:normal;font-size:7.97009993px;font-family:CMSS8;-inkscape-font-specification:CMSS8;writing-mode:lr-tb;fill:#000000;fill-opacity:1;fill-rule:nonzero;stroke:none;stroke-linecap:butt;stroke-linejoin:round"
           id="text174">
          <tspan
             x="0"
             y="0"
             id="tspan172"
             style="stroke-linecap:butt;stroke-linejoin:round">2</tspan>
        </text>
      </g>
      <g
         transform="matrix(0.99999997,0,0,-0.99999997,72.408905,413.32701)"
         id="g1363"
         style="stroke-linecap:butt;stroke-linejoin:round"
         inkscape:export-xdpi="300"
         inkscape:export-ydpi="300">
        <text
           transform="matrix(1,0,0,-1,178.69,183.893)"
           style="font-variant:normal;font-weight:normal;font-size:10.90909958px;font-family:CMSS10;-inkscape-font-specification:CMSS10;writing-mode:lr-tb;fill:#000000;fill-opacity:1;fill-rule:nonzero;stroke:none;stroke-linecap:butt;stroke-linejoin:round"
           id="text178">
          <tspan
             x="0"
             y="0"
             id="tspan176"
             style="stroke-linecap:butt;stroke-linejoin:round">1</tspan>
        </text>
        <g
           id="g180"
           transform="translate(162.74,179.24)"
           style="stroke-linecap:butt;stroke-linejoin:round">
          <path
             d="M 0,0 H 37.354"
             style="fill:none;stroke:#000000;stroke-width:0.43599999;stroke-linecap:butt;stroke-linejoin:miter;stroke-miterlimit:10;stroke-dasharray:none;stroke-opacity:1"
             id="path182"
             inkscape:connector-curvature="0" />
        </g>
        <text
           transform="matrix(1,0,0,-1,162.74,169.029)"
           style="font-variant:normal;font-weight:normal;font-size:10.90909958px;font-family:CMSS10;-inkscape-font-specification:CMSS10;writing-mode:lr-tb;fill:#000000;fill-opacity:1;fill-rule:nonzero;stroke:none;stroke-linecap:butt;stroke-linejoin:round"
           id="text186">
          <tspan
             x="0 4.2425489 12.118919"
             y="0"
             sodipodi:role="line"
             id="tspan184"
             style="stroke-linecap:butt;stroke-linejoin:round">(1+</tspan>
        </text>
        <text
           transform="matrix(1,0,0,-1,185.77,169.029)"
           style="font-variant:normal;font-weight:normal;font-size:10.90909958px;font-family:CMSSI10;-inkscape-font-specification:CMSSI10;writing-mode:lr-tb;fill:#000000;fill-opacity:1;fill-rule:nonzero;stroke:none;stroke-linecap:butt;stroke-linejoin:round"
           id="text190">
          <tspan
             x="0"
             y="0"
             id="tspan188"
             style="stroke-linecap:butt;stroke-linejoin:round">a</tspan>
        </text>
        <text
           transform="matrix(1,0,0,-1,191.12,169.029)"
           style="font-variant:normal;font-weight:normal;font-size:10.90909958px;font-family:CMSS10;-inkscape-font-specification:CMSS10;writing-mode:lr-tb;fill:#000000;fill-opacity:1;fill-rule:nonzero;stroke:none;stroke-linecap:butt;stroke-linejoin:round"
           id="text194">
          <tspan
             x="0"
             y="0"
             id="tspan192"
             style="stroke-linecap:butt;stroke-linejoin:round">)</tspan>
        </text>
        <text
           transform="matrix(1,0,0,-1,195.362,172.181)"
           style="font-variant:normal;font-weight:normal;font-size:7.97009993px;font-family:CMSS8;-inkscape-font-specification:CMSS8;writing-mode:lr-tb;fill:#000000;fill-opacity:1;fill-rule:nonzero;stroke:none;stroke-linecap:butt;stroke-linejoin:round"
           id="text198">
          <tspan
             x="0"
             y="0"
             id="tspan196"
             style="stroke-linecap:butt;stroke-linejoin:round">2</tspan>
        </text>
      </g>
      <g
         transform="matrix(0.01121227,0,0,1,219.29216,-10.424461)"
         id="patch_5-3"
         inkscape:export-xdpi="300"
         inkscape:export-ydpi="300"
         style="stroke-linecap:butt;stroke-linejoin:round">
        <path
           inkscape:connector-curvature="0"
           d="M 54,252 H 388.8"
           style="fill:none;stroke:#000000;stroke-width:0.80000001;stroke-linecap:square;stroke-linejoin:miter"
           id="path361-6" />
      </g>
    </g>
  </g>
  <defs
     id="defs373">
    <clipPath
       id="p93e8b210de">
      <rect
         height="217.44"
         width="334.8"
         x="54"
         y="34.56"
         id="rect370" />
    </clipPath>
  </defs>
</svg>
